G04 #@! TF.FileFunction,Copper,L2,Bot,Signal*
%FSLAX46Y46*%
G04 Gerber Fmt 4.6, Leading zero omitted, Abs format (unit mm)*
G04 Created by KiCad (PCBNEW 4.0.2-stable) date 14/03/2016 9:10:46 PM*
%MOMM*%
G01*
G04 APERTURE LIST*
%ADD10C,0.100000*%
%ADD11C,0.300000*%
%ADD12O,2.300000X1.600000*%
%ADD13R,1.300000X1.300000*%
%ADD14C,1.300000*%
%ADD15R,1.727200X1.727200*%
%ADD16O,1.727200X1.727200*%
%ADD17R,1.727200X2.032000*%
%ADD18O,1.727200X2.032000*%
%ADD19R,2.032000X1.727200*%
%ADD20O,2.032000X1.727200*%
%ADD21C,6.400000*%
%ADD22R,2.540000X2.540000*%
%ADD23C,2.540000*%
%ADD24C,0.508000*%
%ADD25C,0.254000*%
G04 APERTURE END LIST*
D10*
D11*
X146899285Y-145950714D02*
X146970714Y-146022143D01*
X147185000Y-146093571D01*
X147327857Y-146093571D01*
X147542142Y-146022143D01*
X147685000Y-145879286D01*
X147756428Y-145736429D01*
X147827857Y-145450714D01*
X147827857Y-145236429D01*
X147756428Y-144950714D01*
X147685000Y-144807857D01*
X147542142Y-144665000D01*
X147327857Y-144593571D01*
X147185000Y-144593571D01*
X146970714Y-144665000D01*
X146899285Y-144736429D01*
X145613571Y-145093571D02*
X145613571Y-146093571D01*
X146256428Y-145093571D02*
X146256428Y-145879286D01*
X146185000Y-146022143D01*
X146042142Y-146093571D01*
X145827857Y-146093571D01*
X145685000Y-146022143D01*
X145613571Y-145950714D01*
D12*
X157480000Y-114300000D03*
X157480000Y-116840000D03*
X157480000Y-119380000D03*
X157480000Y-121920000D03*
X157480000Y-124460000D03*
X157480000Y-127000000D03*
X157480000Y-129540000D03*
X157480000Y-132080000D03*
X157480000Y-134620000D03*
X157480000Y-137160000D03*
X157480000Y-139700000D03*
X157480000Y-142240000D03*
X157480000Y-144780000D03*
X157480000Y-147320000D03*
X165100000Y-147320000D03*
X165100000Y-144780000D03*
X165100000Y-142240000D03*
X165100000Y-139700000D03*
X165100000Y-137160000D03*
X165100000Y-134620000D03*
X165100000Y-132080000D03*
X165100000Y-129540000D03*
X165100000Y-127000000D03*
X165100000Y-124460000D03*
X165100000Y-121920000D03*
X165100000Y-119380000D03*
X165100000Y-116840000D03*
X165100000Y-114300000D03*
D13*
X149860000Y-99695000D03*
D14*
X149860000Y-101695000D03*
D13*
X147320000Y-137160000D03*
D14*
X152320000Y-137160000D03*
D15*
X170180000Y-106680000D03*
D16*
X172720000Y-106680000D03*
D17*
X170180000Y-147955000D03*
D18*
X172720000Y-147955000D03*
X175260000Y-147955000D03*
D17*
X170180000Y-143510000D03*
D18*
X172720000Y-143510000D03*
X175260000Y-143510000D03*
D17*
X170180000Y-139065000D03*
D18*
X172720000Y-139065000D03*
X175260000Y-139065000D03*
D19*
X170180000Y-132080000D03*
D20*
X170180000Y-129540000D03*
X170180000Y-127000000D03*
X170180000Y-124460000D03*
X170180000Y-121920000D03*
X170180000Y-119380000D03*
X170180000Y-116840000D03*
X170180000Y-114300000D03*
D19*
X152400000Y-114300000D03*
D20*
X152400000Y-116840000D03*
X152400000Y-119380000D03*
X152400000Y-121920000D03*
X152400000Y-124460000D03*
X152400000Y-127000000D03*
X152400000Y-129540000D03*
X152400000Y-132080000D03*
D19*
X180340000Y-114300000D03*
D20*
X180340000Y-116840000D03*
X180340000Y-119380000D03*
X180340000Y-121920000D03*
X180340000Y-124460000D03*
X180340000Y-127000000D03*
X180340000Y-129540000D03*
X180340000Y-132080000D03*
D19*
X147320000Y-114300000D03*
D20*
X147320000Y-116840000D03*
X147320000Y-119380000D03*
X147320000Y-121920000D03*
X147320000Y-124460000D03*
X147320000Y-127000000D03*
X147320000Y-129540000D03*
X147320000Y-132080000D03*
D19*
X175260000Y-114300000D03*
D20*
X175260000Y-116840000D03*
X175260000Y-119380000D03*
X175260000Y-121920000D03*
X175260000Y-124460000D03*
X175260000Y-127000000D03*
X175260000Y-129540000D03*
X175260000Y-132080000D03*
D19*
X142240000Y-114300000D03*
D20*
X142240000Y-116840000D03*
X142240000Y-119380000D03*
X142240000Y-121920000D03*
X142240000Y-124460000D03*
X142240000Y-127000000D03*
X142240000Y-129540000D03*
X142240000Y-132080000D03*
D19*
X137160000Y-111760000D03*
D20*
X137160000Y-114300000D03*
X137160000Y-116840000D03*
X137160000Y-119380000D03*
X137160000Y-121920000D03*
X137160000Y-124460000D03*
X137160000Y-127000000D03*
X137160000Y-129540000D03*
X137160000Y-132080000D03*
X137160000Y-134620000D03*
D19*
X185420000Y-111760000D03*
D20*
X185420000Y-114300000D03*
X185420000Y-116840000D03*
X185420000Y-119380000D03*
X185420000Y-121920000D03*
X185420000Y-124460000D03*
X185420000Y-127000000D03*
X185420000Y-129540000D03*
X185420000Y-132080000D03*
X185420000Y-134620000D03*
D19*
X132080000Y-111760000D03*
D20*
X132080000Y-114300000D03*
X132080000Y-116840000D03*
X132080000Y-119380000D03*
X132080000Y-121920000D03*
X132080000Y-124460000D03*
X132080000Y-127000000D03*
X132080000Y-129540000D03*
X132080000Y-132080000D03*
X132080000Y-134620000D03*
D19*
X190500000Y-111760000D03*
D20*
X190500000Y-114300000D03*
X190500000Y-116840000D03*
X190500000Y-119380000D03*
X190500000Y-121920000D03*
X190500000Y-124460000D03*
X190500000Y-127000000D03*
X190500000Y-129540000D03*
X190500000Y-132080000D03*
X190500000Y-134620000D03*
D21*
X134620000Y-92075000D03*
X187960000Y-92075000D03*
X134620000Y-144780000D03*
X187960000Y-144780000D03*
D22*
X172085000Y-91440000D03*
D23*
X177165000Y-91440000D03*
D15*
X160020000Y-92710000D03*
D16*
X162560000Y-92710000D03*
X160020000Y-95250000D03*
X162560000Y-95250000D03*
X160020000Y-97790000D03*
X162560000Y-97790000D03*
X160020000Y-100330000D03*
X162560000Y-100330000D03*
X160020000Y-102870000D03*
X162560000Y-102870000D03*
X160020000Y-105410000D03*
X162560000Y-105410000D03*
D24*
X160020000Y-102870000D02*
X158750000Y-102870000D01*
X163195000Y-139700000D02*
X165100000Y-139700000D01*
X162560000Y-140335000D02*
X163195000Y-139700000D01*
X162560000Y-145415000D02*
X162560000Y-140335000D01*
X161925000Y-146050000D02*
X162560000Y-145415000D01*
X155575000Y-146050000D02*
X161925000Y-146050000D01*
X154940000Y-145415000D02*
X155575000Y-146050000D01*
X154940000Y-139065000D02*
X154940000Y-145415000D01*
X155575000Y-138430000D02*
X154940000Y-139065000D01*
X158750000Y-138430000D02*
X155575000Y-138430000D01*
X159385000Y-137795000D02*
X158750000Y-138430000D01*
X159385000Y-113030000D02*
X159385000Y-137795000D01*
X158115000Y-111760000D02*
X159385000Y-113030000D01*
X158115000Y-103505000D02*
X158115000Y-111760000D01*
X158750000Y-102870000D02*
X158115000Y-103505000D01*
X162560000Y-102870000D02*
X168910000Y-102870000D01*
X170180000Y-104140000D02*
X170180000Y-106680000D01*
X168910000Y-102870000D02*
X170180000Y-104140000D01*
X160020000Y-105410000D02*
X160020000Y-110490000D01*
X159385000Y-142240000D02*
X157480000Y-142240000D01*
X160020000Y-141605000D02*
X159385000Y-142240000D01*
X160020000Y-139065000D02*
X160020000Y-141605000D01*
X160655000Y-138430000D02*
X160020000Y-139065000D01*
X160655000Y-111125000D02*
X160655000Y-138430000D01*
X160020000Y-110490000D02*
X160655000Y-111125000D01*
X162560000Y-105410000D02*
X162560000Y-138430000D01*
X160655000Y-144780000D02*
X157480000Y-144780000D01*
X161290000Y-144145000D02*
X160655000Y-144780000D01*
X161290000Y-139700000D02*
X161290000Y-144145000D01*
X162560000Y-138430000D02*
X161290000Y-139700000D01*
X172720000Y-106680000D02*
X172720000Y-133985000D01*
X172085000Y-134620000D02*
X165100000Y-134620000D01*
X172720000Y-133985000D02*
X172085000Y-134620000D01*
X165100000Y-147320000D02*
X166370000Y-147320000D01*
X172720000Y-146685000D02*
X172720000Y-147955000D01*
X172085000Y-146050000D02*
X172720000Y-146685000D01*
X167640000Y-146050000D02*
X172085000Y-146050000D01*
X166370000Y-147320000D02*
X167640000Y-146050000D01*
X165100000Y-144780000D02*
X167005000Y-144780000D01*
X172720000Y-144780000D02*
X172720000Y-143510000D01*
X172158002Y-145341998D02*
X172720000Y-144780000D01*
X167566998Y-145341998D02*
X172158002Y-145341998D01*
X167005000Y-144780000D02*
X167566998Y-145341998D01*
X165100000Y-142240000D02*
X167005000Y-142240000D01*
X172720000Y-140970000D02*
X172720000Y-139065000D01*
X172085000Y-141605000D02*
X172720000Y-140970000D01*
X167640000Y-141605000D02*
X172085000Y-141605000D01*
X167005000Y-142240000D02*
X167640000Y-141605000D01*
X165100000Y-132080000D02*
X170180000Y-132080000D01*
X165100000Y-129540000D02*
X170180000Y-129540000D01*
X165100000Y-127000000D02*
X170180000Y-127000000D01*
X165100000Y-124460000D02*
X170180000Y-124460000D01*
X165100000Y-121920000D02*
X170180000Y-121920000D01*
X165100000Y-119380000D02*
X170180000Y-119380000D01*
X165100000Y-116840000D02*
X170180000Y-116840000D01*
X165100000Y-114300000D02*
X170180000Y-114300000D01*
X152400000Y-114300000D02*
X157480000Y-114300000D01*
X152400000Y-116840000D02*
X157480000Y-116840000D01*
X152400000Y-119380000D02*
X157480000Y-119380000D01*
X152400000Y-121920000D02*
X157480000Y-121920000D01*
X152400000Y-124460000D02*
X157480000Y-124460000D01*
X152400000Y-127000000D02*
X157480000Y-127000000D01*
X152400000Y-129540000D02*
X157480000Y-129540000D01*
X152400000Y-132080000D02*
X157480000Y-132080000D01*
X175260000Y-114300000D02*
X180340000Y-114300000D01*
X175260000Y-116840000D02*
X180340000Y-116840000D01*
X175260000Y-119380000D02*
X180340000Y-119380000D01*
X175260000Y-121920000D02*
X180340000Y-121920000D01*
X175260000Y-124460000D02*
X180340000Y-124460000D01*
X175260000Y-127000000D02*
X180340000Y-127000000D01*
X175260000Y-129540000D02*
X180340000Y-129540000D01*
X175260000Y-132080000D02*
X180340000Y-132080000D01*
X142240000Y-114300000D02*
X147320000Y-114300000D01*
X142240000Y-116840000D02*
X147320000Y-116840000D01*
X142240000Y-119380000D02*
X147320000Y-119380000D01*
X142240000Y-121920000D02*
X147320000Y-121920000D01*
X142240000Y-124460000D02*
X147320000Y-124460000D01*
X142240000Y-127000000D02*
X147320000Y-127000000D01*
X142240000Y-129540000D02*
X147320000Y-129540000D01*
X142240000Y-132080000D02*
X147320000Y-132080000D01*
D25*
G36*
X192278000Y-150368000D02*
X130302000Y-150368000D01*
X130302000Y-145539482D01*
X130784336Y-145539482D01*
X131366950Y-146949515D01*
X132444811Y-148029259D01*
X133853825Y-148614333D01*
X135379482Y-148615664D01*
X136789515Y-148033050D01*
X137869259Y-146955189D01*
X138454333Y-145546175D01*
X138455664Y-144020518D01*
X138149689Y-143280000D01*
X144471429Y-143280000D01*
X144471429Y-147250000D01*
X148898572Y-147250000D01*
X148898572Y-143280000D01*
X144471429Y-143280000D01*
X138149689Y-143280000D01*
X137873050Y-142610485D01*
X136795189Y-141530741D01*
X135386175Y-140945667D01*
X133860518Y-140944336D01*
X132450485Y-141526950D01*
X131370741Y-142604811D01*
X130785667Y-144013825D01*
X130784336Y-145539482D01*
X130302000Y-145539482D01*
X130302000Y-136510000D01*
X146022560Y-136510000D01*
X146022560Y-137810000D01*
X146066838Y-138045317D01*
X146205910Y-138261441D01*
X146418110Y-138406431D01*
X146670000Y-138457440D01*
X147970000Y-138457440D01*
X148205317Y-138413162D01*
X148421441Y-138274090D01*
X148566431Y-138061890D01*
X148567012Y-138059016D01*
X151600590Y-138059016D01*
X151656271Y-138289611D01*
X152139078Y-138457622D01*
X152649428Y-138428083D01*
X152983729Y-138289611D01*
X153039410Y-138059016D01*
X152320000Y-137339605D01*
X151600590Y-138059016D01*
X148567012Y-138059016D01*
X148617440Y-137810000D01*
X148617440Y-136979078D01*
X151022378Y-136979078D01*
X151051917Y-137489428D01*
X151190389Y-137823729D01*
X151420984Y-137879410D01*
X152140395Y-137160000D01*
X152499605Y-137160000D01*
X153219016Y-137879410D01*
X153449611Y-137823729D01*
X153617622Y-137340922D01*
X153588083Y-136830572D01*
X153449611Y-136496271D01*
X153219016Y-136440590D01*
X152499605Y-137160000D01*
X152140395Y-137160000D01*
X151420984Y-136440590D01*
X151190389Y-136496271D01*
X151022378Y-136979078D01*
X148617440Y-136979078D01*
X148617440Y-136510000D01*
X148573162Y-136274683D01*
X148564347Y-136260984D01*
X151600590Y-136260984D01*
X152320000Y-136980395D01*
X153039410Y-136260984D01*
X152983729Y-136030389D01*
X152500922Y-135862378D01*
X151990572Y-135891917D01*
X151656271Y-136030389D01*
X151600590Y-136260984D01*
X148564347Y-136260984D01*
X148434090Y-136058559D01*
X148221890Y-135913569D01*
X147970000Y-135862560D01*
X146670000Y-135862560D01*
X146434683Y-135906838D01*
X146218559Y-136045910D01*
X146073569Y-136258110D01*
X146022560Y-136510000D01*
X130302000Y-136510000D01*
X130302000Y-134979026D01*
X130472642Y-134979026D01*
X130475291Y-134994791D01*
X130729268Y-135522036D01*
X131165680Y-135911954D01*
X131718087Y-136105184D01*
X131953000Y-135960924D01*
X131953000Y-134747000D01*
X132207000Y-134747000D01*
X132207000Y-135960924D01*
X132441913Y-136105184D01*
X132994320Y-135911954D01*
X133430732Y-135522036D01*
X133684709Y-134994791D01*
X133687358Y-134979026D01*
X133566217Y-134747000D01*
X132207000Y-134747000D01*
X131953000Y-134747000D01*
X130593783Y-134747000D01*
X130472642Y-134979026D01*
X130302000Y-134979026D01*
X130302000Y-132439026D01*
X130472642Y-132439026D01*
X130475291Y-132454791D01*
X130729268Y-132982036D01*
X131141108Y-133350000D01*
X130729268Y-133717964D01*
X130475291Y-134245209D01*
X130472642Y-134260974D01*
X130593783Y-134493000D01*
X131953000Y-134493000D01*
X131953000Y-132207000D01*
X132207000Y-132207000D01*
X132207000Y-134493000D01*
X133566217Y-134493000D01*
X133687358Y-134260974D01*
X133684709Y-134245209D01*
X133430732Y-133717964D01*
X133018892Y-133350000D01*
X133430732Y-132982036D01*
X133684709Y-132454791D01*
X133687358Y-132439026D01*
X133566217Y-132207000D01*
X132207000Y-132207000D01*
X131953000Y-132207000D01*
X130593783Y-132207000D01*
X130472642Y-132439026D01*
X130302000Y-132439026D01*
X130302000Y-129899026D01*
X130472642Y-129899026D01*
X130475291Y-129914791D01*
X130729268Y-130442036D01*
X131141108Y-130810000D01*
X130729268Y-131177964D01*
X130475291Y-131705209D01*
X130472642Y-131720974D01*
X130593783Y-131953000D01*
X131953000Y-131953000D01*
X131953000Y-129667000D01*
X132207000Y-129667000D01*
X132207000Y-131953000D01*
X133566217Y-131953000D01*
X133687358Y-131720974D01*
X133684709Y-131705209D01*
X133430732Y-131177964D01*
X133018892Y-130810000D01*
X133430732Y-130442036D01*
X133684709Y-129914791D01*
X133687358Y-129899026D01*
X133566217Y-129667000D01*
X132207000Y-129667000D01*
X131953000Y-129667000D01*
X130593783Y-129667000D01*
X130472642Y-129899026D01*
X130302000Y-129899026D01*
X130302000Y-127359026D01*
X130472642Y-127359026D01*
X130475291Y-127374791D01*
X130729268Y-127902036D01*
X131141108Y-128270000D01*
X130729268Y-128637964D01*
X130475291Y-129165209D01*
X130472642Y-129180974D01*
X130593783Y-129413000D01*
X131953000Y-129413000D01*
X131953000Y-127127000D01*
X132207000Y-127127000D01*
X132207000Y-129413000D01*
X133566217Y-129413000D01*
X133687358Y-129180974D01*
X133684709Y-129165209D01*
X133430732Y-128637964D01*
X133018892Y-128270000D01*
X133430732Y-127902036D01*
X133684709Y-127374791D01*
X133687358Y-127359026D01*
X133566217Y-127127000D01*
X132207000Y-127127000D01*
X131953000Y-127127000D01*
X130593783Y-127127000D01*
X130472642Y-127359026D01*
X130302000Y-127359026D01*
X130302000Y-124819026D01*
X130472642Y-124819026D01*
X130475291Y-124834791D01*
X130729268Y-125362036D01*
X131141108Y-125730000D01*
X130729268Y-126097964D01*
X130475291Y-126625209D01*
X130472642Y-126640974D01*
X130593783Y-126873000D01*
X131953000Y-126873000D01*
X131953000Y-124587000D01*
X132207000Y-124587000D01*
X132207000Y-126873000D01*
X133566217Y-126873000D01*
X133687358Y-126640974D01*
X133684709Y-126625209D01*
X133430732Y-126097964D01*
X133018892Y-125730000D01*
X133430732Y-125362036D01*
X133684709Y-124834791D01*
X133687358Y-124819026D01*
X133566217Y-124587000D01*
X132207000Y-124587000D01*
X131953000Y-124587000D01*
X130593783Y-124587000D01*
X130472642Y-124819026D01*
X130302000Y-124819026D01*
X130302000Y-122279026D01*
X130472642Y-122279026D01*
X130475291Y-122294791D01*
X130729268Y-122822036D01*
X131141108Y-123190000D01*
X130729268Y-123557964D01*
X130475291Y-124085209D01*
X130472642Y-124100974D01*
X130593783Y-124333000D01*
X131953000Y-124333000D01*
X131953000Y-122047000D01*
X132207000Y-122047000D01*
X132207000Y-124333000D01*
X133566217Y-124333000D01*
X133687358Y-124100974D01*
X133684709Y-124085209D01*
X133430732Y-123557964D01*
X133018892Y-123190000D01*
X133430732Y-122822036D01*
X133684709Y-122294791D01*
X133687358Y-122279026D01*
X133566217Y-122047000D01*
X132207000Y-122047000D01*
X131953000Y-122047000D01*
X130593783Y-122047000D01*
X130472642Y-122279026D01*
X130302000Y-122279026D01*
X130302000Y-119739026D01*
X130472642Y-119739026D01*
X130475291Y-119754791D01*
X130729268Y-120282036D01*
X131141108Y-120650000D01*
X130729268Y-121017964D01*
X130475291Y-121545209D01*
X130472642Y-121560974D01*
X130593783Y-121793000D01*
X131953000Y-121793000D01*
X131953000Y-119507000D01*
X132207000Y-119507000D01*
X132207000Y-121793000D01*
X133566217Y-121793000D01*
X133687358Y-121560974D01*
X133684709Y-121545209D01*
X133430732Y-121017964D01*
X133018892Y-120650000D01*
X133430732Y-120282036D01*
X133684709Y-119754791D01*
X133687358Y-119739026D01*
X133566217Y-119507000D01*
X132207000Y-119507000D01*
X131953000Y-119507000D01*
X130593783Y-119507000D01*
X130472642Y-119739026D01*
X130302000Y-119739026D01*
X130302000Y-117199026D01*
X130472642Y-117199026D01*
X130475291Y-117214791D01*
X130729268Y-117742036D01*
X131141108Y-118110000D01*
X130729268Y-118477964D01*
X130475291Y-119005209D01*
X130472642Y-119020974D01*
X130593783Y-119253000D01*
X131953000Y-119253000D01*
X131953000Y-116967000D01*
X132207000Y-116967000D01*
X132207000Y-119253000D01*
X133566217Y-119253000D01*
X133687358Y-119020974D01*
X133684709Y-119005209D01*
X133430732Y-118477964D01*
X133018892Y-118110000D01*
X133430732Y-117742036D01*
X133684709Y-117214791D01*
X133687358Y-117199026D01*
X133566217Y-116967000D01*
X132207000Y-116967000D01*
X131953000Y-116967000D01*
X130593783Y-116967000D01*
X130472642Y-117199026D01*
X130302000Y-117199026D01*
X130302000Y-114659026D01*
X130472642Y-114659026D01*
X130475291Y-114674791D01*
X130729268Y-115202036D01*
X131141108Y-115570000D01*
X130729268Y-115937964D01*
X130475291Y-116465209D01*
X130472642Y-116480974D01*
X130593783Y-116713000D01*
X131953000Y-116713000D01*
X131953000Y-114427000D01*
X132207000Y-114427000D01*
X132207000Y-116713000D01*
X133566217Y-116713000D01*
X133687358Y-116480974D01*
X133684709Y-116465209D01*
X133430732Y-115937964D01*
X133018892Y-115570000D01*
X133430732Y-115202036D01*
X133684709Y-114674791D01*
X133687358Y-114659026D01*
X133566217Y-114427000D01*
X132207000Y-114427000D01*
X131953000Y-114427000D01*
X130593783Y-114427000D01*
X130472642Y-114659026D01*
X130302000Y-114659026D01*
X130302000Y-114300000D01*
X135476655Y-114300000D01*
X135590729Y-114873489D01*
X135915585Y-115359670D01*
X136230366Y-115570000D01*
X135915585Y-115780330D01*
X135590729Y-116266511D01*
X135476655Y-116840000D01*
X135590729Y-117413489D01*
X135915585Y-117899670D01*
X136230366Y-118110000D01*
X135915585Y-118320330D01*
X135590729Y-118806511D01*
X135476655Y-119380000D01*
X135590729Y-119953489D01*
X135915585Y-120439670D01*
X136230366Y-120650000D01*
X135915585Y-120860330D01*
X135590729Y-121346511D01*
X135476655Y-121920000D01*
X135590729Y-122493489D01*
X135915585Y-122979670D01*
X136230366Y-123190000D01*
X135915585Y-123400330D01*
X135590729Y-123886511D01*
X135476655Y-124460000D01*
X135590729Y-125033489D01*
X135915585Y-125519670D01*
X136230366Y-125730000D01*
X135915585Y-125940330D01*
X135590729Y-126426511D01*
X135476655Y-127000000D01*
X135590729Y-127573489D01*
X135915585Y-128059670D01*
X136230366Y-128270000D01*
X135915585Y-128480330D01*
X135590729Y-128966511D01*
X135476655Y-129540000D01*
X135590729Y-130113489D01*
X135915585Y-130599670D01*
X136230366Y-130810000D01*
X135915585Y-131020330D01*
X135590729Y-131506511D01*
X135476655Y-132080000D01*
X135590729Y-132653489D01*
X135915585Y-133139670D01*
X136230366Y-133350000D01*
X135915585Y-133560330D01*
X135590729Y-134046511D01*
X135476655Y-134620000D01*
X135590729Y-135193489D01*
X135915585Y-135679670D01*
X136401766Y-136004526D01*
X136975255Y-136118600D01*
X137344745Y-136118600D01*
X137918234Y-136004526D01*
X138404415Y-135679670D01*
X138729271Y-135193489D01*
X138843345Y-134620000D01*
X138729271Y-134046511D01*
X138404415Y-133560330D01*
X138089634Y-133350000D01*
X138404415Y-133139670D01*
X138729271Y-132653489D01*
X138843345Y-132080000D01*
X138729271Y-131506511D01*
X138404415Y-131020330D01*
X138089634Y-130810000D01*
X138404415Y-130599670D01*
X138729271Y-130113489D01*
X138843345Y-129540000D01*
X138729271Y-128966511D01*
X138404415Y-128480330D01*
X138089634Y-128270000D01*
X138404415Y-128059670D01*
X138729271Y-127573489D01*
X138843345Y-127000000D01*
X138729271Y-126426511D01*
X138404415Y-125940330D01*
X138089634Y-125730000D01*
X138404415Y-125519670D01*
X138729271Y-125033489D01*
X138843345Y-124460000D01*
X138729271Y-123886511D01*
X138404415Y-123400330D01*
X138089634Y-123190000D01*
X138404415Y-122979670D01*
X138729271Y-122493489D01*
X138843345Y-121920000D01*
X138729271Y-121346511D01*
X138404415Y-120860330D01*
X138089634Y-120650000D01*
X138404415Y-120439670D01*
X138729271Y-119953489D01*
X138843345Y-119380000D01*
X138729271Y-118806511D01*
X138404415Y-118320330D01*
X138089634Y-118110000D01*
X138404415Y-117899670D01*
X138729271Y-117413489D01*
X138843345Y-116840000D01*
X140556655Y-116840000D01*
X140670729Y-117413489D01*
X140995585Y-117899670D01*
X141310366Y-118110000D01*
X140995585Y-118320330D01*
X140670729Y-118806511D01*
X140556655Y-119380000D01*
X140670729Y-119953489D01*
X140995585Y-120439670D01*
X141310366Y-120650000D01*
X140995585Y-120860330D01*
X140670729Y-121346511D01*
X140556655Y-121920000D01*
X140670729Y-122493489D01*
X140995585Y-122979670D01*
X141310366Y-123190000D01*
X140995585Y-123400330D01*
X140670729Y-123886511D01*
X140556655Y-124460000D01*
X140670729Y-125033489D01*
X140995585Y-125519670D01*
X141310366Y-125730000D01*
X140995585Y-125940330D01*
X140670729Y-126426511D01*
X140556655Y-127000000D01*
X140670729Y-127573489D01*
X140995585Y-128059670D01*
X141310366Y-128270000D01*
X140995585Y-128480330D01*
X140670729Y-128966511D01*
X140556655Y-129540000D01*
X140670729Y-130113489D01*
X140995585Y-130599670D01*
X141310366Y-130810000D01*
X140995585Y-131020330D01*
X140670729Y-131506511D01*
X140556655Y-132080000D01*
X140670729Y-132653489D01*
X140995585Y-133139670D01*
X141481766Y-133464526D01*
X142055255Y-133578600D01*
X142424745Y-133578600D01*
X142998234Y-133464526D01*
X143484415Y-133139670D01*
X143598453Y-132969000D01*
X145961547Y-132969000D01*
X146075585Y-133139670D01*
X146561766Y-133464526D01*
X147135255Y-133578600D01*
X147504745Y-133578600D01*
X148078234Y-133464526D01*
X148564415Y-133139670D01*
X148889271Y-132653489D01*
X149003345Y-132080000D01*
X148889271Y-131506511D01*
X148564415Y-131020330D01*
X148249634Y-130810000D01*
X148564415Y-130599670D01*
X148889271Y-130113489D01*
X149003345Y-129540000D01*
X148889271Y-128966511D01*
X148564415Y-128480330D01*
X148249634Y-128270000D01*
X148564415Y-128059670D01*
X148889271Y-127573489D01*
X149003345Y-127000000D01*
X148889271Y-126426511D01*
X148564415Y-125940330D01*
X148249634Y-125730000D01*
X148564415Y-125519670D01*
X148889271Y-125033489D01*
X149003345Y-124460000D01*
X148889271Y-123886511D01*
X148564415Y-123400330D01*
X148249634Y-123190000D01*
X148564415Y-122979670D01*
X148889271Y-122493489D01*
X149003345Y-121920000D01*
X148889271Y-121346511D01*
X148564415Y-120860330D01*
X148249634Y-120650000D01*
X148564415Y-120439670D01*
X148889271Y-119953489D01*
X149003345Y-119380000D01*
X148889271Y-118806511D01*
X148564415Y-118320330D01*
X148249634Y-118110000D01*
X148564415Y-117899670D01*
X148889271Y-117413489D01*
X149003345Y-116840000D01*
X150716655Y-116840000D01*
X150830729Y-117413489D01*
X151155585Y-117899670D01*
X151470366Y-118110000D01*
X151155585Y-118320330D01*
X150830729Y-118806511D01*
X150716655Y-119380000D01*
X150830729Y-119953489D01*
X151155585Y-120439670D01*
X151470366Y-120650000D01*
X151155585Y-120860330D01*
X150830729Y-121346511D01*
X150716655Y-121920000D01*
X150830729Y-122493489D01*
X151155585Y-122979670D01*
X151470366Y-123190000D01*
X151155585Y-123400330D01*
X150830729Y-123886511D01*
X150716655Y-124460000D01*
X150830729Y-125033489D01*
X151155585Y-125519670D01*
X151470366Y-125730000D01*
X151155585Y-125940330D01*
X150830729Y-126426511D01*
X150716655Y-127000000D01*
X150830729Y-127573489D01*
X151155585Y-128059670D01*
X151470366Y-128270000D01*
X151155585Y-128480330D01*
X150830729Y-128966511D01*
X150716655Y-129540000D01*
X150830729Y-130113489D01*
X151155585Y-130599670D01*
X151470366Y-130810000D01*
X151155585Y-131020330D01*
X150830729Y-131506511D01*
X150716655Y-132080000D01*
X150830729Y-132653489D01*
X151155585Y-133139670D01*
X151641766Y-133464526D01*
X152215255Y-133578600D01*
X152584745Y-133578600D01*
X153158234Y-133464526D01*
X153644415Y-133139670D01*
X153758453Y-132969000D01*
X155996343Y-132969000D01*
X156080332Y-133094698D01*
X156462418Y-133350000D01*
X156080332Y-133605302D01*
X155769263Y-134070849D01*
X155660030Y-134620000D01*
X155769263Y-135169151D01*
X156080332Y-135634698D01*
X156458151Y-135887149D01*
X156025500Y-136235104D01*
X155755633Y-136728181D01*
X155738096Y-136810961D01*
X155860085Y-137033000D01*
X157353000Y-137033000D01*
X157353000Y-137013000D01*
X157607000Y-137013000D01*
X157607000Y-137033000D01*
X157627000Y-137033000D01*
X157627000Y-137287000D01*
X157607000Y-137287000D01*
X157607000Y-137307000D01*
X157353000Y-137307000D01*
X157353000Y-137287000D01*
X155860085Y-137287000D01*
X155738096Y-137509039D01*
X155744867Y-137541000D01*
X155575000Y-137541000D01*
X155234795Y-137608670D01*
X154946382Y-137801382D01*
X154311382Y-138436382D01*
X154118671Y-138724794D01*
X154051000Y-139065000D01*
X154051000Y-145415000D01*
X154118671Y-145755206D01*
X154205397Y-145885000D01*
X154311382Y-146043618D01*
X154946382Y-146678618D01*
X155234795Y-146871330D01*
X155575000Y-146939000D01*
X155735816Y-146939000D01*
X155660030Y-147320000D01*
X155769263Y-147869151D01*
X156080332Y-148334698D01*
X156545879Y-148645767D01*
X157095030Y-148755000D01*
X157864970Y-148755000D01*
X158414121Y-148645767D01*
X158879668Y-148334698D01*
X159190737Y-147869151D01*
X159299970Y-147320000D01*
X159224184Y-146939000D01*
X161925000Y-146939000D01*
X162265206Y-146871329D01*
X162553618Y-146678618D01*
X163188618Y-146043618D01*
X163381330Y-145755205D01*
X163448455Y-145417738D01*
X163700332Y-145794698D01*
X164082418Y-146050000D01*
X163700332Y-146305302D01*
X163389263Y-146770849D01*
X163280030Y-147320000D01*
X163389263Y-147869151D01*
X163700332Y-148334698D01*
X164165879Y-148645767D01*
X164715030Y-148755000D01*
X165484970Y-148755000D01*
X166034121Y-148645767D01*
X166499668Y-148334698D01*
X166616406Y-148159987D01*
X166710206Y-148141329D01*
X166998618Y-147948618D01*
X168008236Y-146939000D01*
X168668960Y-146939000D01*
X168668960Y-148971000D01*
X168713238Y-149206317D01*
X168852310Y-149422441D01*
X169064510Y-149567431D01*
X169316400Y-149618440D01*
X171043600Y-149618440D01*
X171278917Y-149574162D01*
X171495041Y-149435090D01*
X171640031Y-149222890D01*
X171648400Y-149181561D01*
X171660330Y-149199415D01*
X172146511Y-149524271D01*
X172720000Y-149638345D01*
X173293489Y-149524271D01*
X173779670Y-149199415D01*
X173990000Y-148884634D01*
X174200330Y-149199415D01*
X174686511Y-149524271D01*
X175260000Y-149638345D01*
X175833489Y-149524271D01*
X176319670Y-149199415D01*
X176644526Y-148713234D01*
X176758600Y-148139745D01*
X176758600Y-147770255D01*
X176644526Y-147196766D01*
X176319670Y-146710585D01*
X175833489Y-146385729D01*
X175260000Y-146271655D01*
X174686511Y-146385729D01*
X174200330Y-146710585D01*
X173990000Y-147025366D01*
X173779670Y-146710585D01*
X173588709Y-146582989D01*
X173567211Y-146474910D01*
X173541330Y-146344795D01*
X173348618Y-146056382D01*
X173024736Y-145732500D01*
X173217754Y-145539482D01*
X184124336Y-145539482D01*
X184706950Y-146949515D01*
X185784811Y-148029259D01*
X187193825Y-148614333D01*
X188719482Y-148615664D01*
X190129515Y-148033050D01*
X191209259Y-146955189D01*
X191794333Y-145546175D01*
X191795664Y-144020518D01*
X191213050Y-142610485D01*
X190135189Y-141530741D01*
X188726175Y-140945667D01*
X187200518Y-140944336D01*
X185790485Y-141526950D01*
X184710741Y-142604811D01*
X184125667Y-144013825D01*
X184124336Y-145539482D01*
X173217754Y-145539482D01*
X173348618Y-145408618D01*
X173401716Y-145329151D01*
X173541329Y-145120206D01*
X173588709Y-144882011D01*
X173779670Y-144754415D01*
X173990000Y-144439634D01*
X174200330Y-144754415D01*
X174686511Y-145079271D01*
X175260000Y-145193345D01*
X175833489Y-145079271D01*
X176319670Y-144754415D01*
X176644526Y-144268234D01*
X176758600Y-143694745D01*
X176758600Y-143325255D01*
X176644526Y-142751766D01*
X176319670Y-142265585D01*
X175833489Y-141940729D01*
X175260000Y-141826655D01*
X174686511Y-141940729D01*
X174200330Y-142265585D01*
X173990000Y-142580366D01*
X173779670Y-142265585D01*
X173293489Y-141940729D01*
X173054120Y-141893116D01*
X173348618Y-141598618D01*
X173541330Y-141310205D01*
X173609000Y-140970000D01*
X173609000Y-140423453D01*
X173779670Y-140309415D01*
X173990000Y-139994634D01*
X174200330Y-140309415D01*
X174686511Y-140634271D01*
X175260000Y-140748345D01*
X175833489Y-140634271D01*
X176319670Y-140309415D01*
X176644526Y-139823234D01*
X176758600Y-139249745D01*
X176758600Y-138880255D01*
X176644526Y-138306766D01*
X176319670Y-137820585D01*
X175833489Y-137495729D01*
X175260000Y-137381655D01*
X174686511Y-137495729D01*
X174200330Y-137820585D01*
X173990000Y-138135366D01*
X173779670Y-137820585D01*
X173293489Y-137495729D01*
X172720000Y-137381655D01*
X172146511Y-137495729D01*
X171660330Y-137820585D01*
X171650757Y-137834913D01*
X171646762Y-137813683D01*
X171507690Y-137597559D01*
X171295490Y-137452569D01*
X171043600Y-137401560D01*
X169316400Y-137401560D01*
X169081083Y-137445838D01*
X168864959Y-137584910D01*
X168719969Y-137797110D01*
X168668960Y-138049000D01*
X168668960Y-140081000D01*
X168713238Y-140316317D01*
X168852310Y-140532441D01*
X169064510Y-140677431D01*
X169254969Y-140716000D01*
X167640000Y-140716000D01*
X167299795Y-140783670D01*
X167011382Y-140976382D01*
X166636764Y-141351000D01*
X166583657Y-141351000D01*
X166499668Y-141225302D01*
X166117582Y-140970000D01*
X166499668Y-140714698D01*
X166810737Y-140249151D01*
X166919970Y-139700000D01*
X166810737Y-139150849D01*
X166499668Y-138685302D01*
X166117582Y-138430000D01*
X166499668Y-138174698D01*
X166810737Y-137709151D01*
X166919970Y-137160000D01*
X166810737Y-136610849D01*
X166499668Y-136145302D01*
X166117582Y-135890000D01*
X166499668Y-135634698D01*
X166583657Y-135509000D01*
X172085000Y-135509000D01*
X172425206Y-135441329D01*
X172713618Y-135248618D01*
X173348618Y-134613618D01*
X173541330Y-134325205D01*
X173609000Y-133985000D01*
X173609000Y-132242609D01*
X173690729Y-132653489D01*
X174015585Y-133139670D01*
X174501766Y-133464526D01*
X175075255Y-133578600D01*
X175444745Y-133578600D01*
X176018234Y-133464526D01*
X176504415Y-133139670D01*
X176618453Y-132969000D01*
X178981547Y-132969000D01*
X179095585Y-133139670D01*
X179581766Y-133464526D01*
X180155255Y-133578600D01*
X180524745Y-133578600D01*
X181098234Y-133464526D01*
X181584415Y-133139670D01*
X181909271Y-132653489D01*
X182023345Y-132080000D01*
X181909271Y-131506511D01*
X181584415Y-131020330D01*
X181269634Y-130810000D01*
X181584415Y-130599670D01*
X181909271Y-130113489D01*
X182023345Y-129540000D01*
X181909271Y-128966511D01*
X181584415Y-128480330D01*
X181269634Y-128270000D01*
X181584415Y-128059670D01*
X181909271Y-127573489D01*
X182023345Y-127000000D01*
X181909271Y-126426511D01*
X181584415Y-125940330D01*
X181269634Y-125730000D01*
X181584415Y-125519670D01*
X181909271Y-125033489D01*
X182023345Y-124460000D01*
X181909271Y-123886511D01*
X181584415Y-123400330D01*
X181269634Y-123190000D01*
X181584415Y-122979670D01*
X181909271Y-122493489D01*
X182023345Y-121920000D01*
X181909271Y-121346511D01*
X181584415Y-120860330D01*
X181269634Y-120650000D01*
X181584415Y-120439670D01*
X181909271Y-119953489D01*
X182023345Y-119380000D01*
X181909271Y-118806511D01*
X181584415Y-118320330D01*
X181269634Y-118110000D01*
X181584415Y-117899670D01*
X181909271Y-117413489D01*
X182023345Y-116840000D01*
X181909271Y-116266511D01*
X181584415Y-115780330D01*
X181570087Y-115770757D01*
X181591317Y-115766762D01*
X181807441Y-115627690D01*
X181952431Y-115415490D01*
X182003440Y-115163600D01*
X182003440Y-114300000D01*
X183736655Y-114300000D01*
X183850729Y-114873489D01*
X184175585Y-115359670D01*
X184490366Y-115570000D01*
X184175585Y-115780330D01*
X183850729Y-116266511D01*
X183736655Y-116840000D01*
X183850729Y-117413489D01*
X184175585Y-117899670D01*
X184490366Y-118110000D01*
X184175585Y-118320330D01*
X183850729Y-118806511D01*
X183736655Y-119380000D01*
X183850729Y-119953489D01*
X184175585Y-120439670D01*
X184490366Y-120650000D01*
X184175585Y-120860330D01*
X183850729Y-121346511D01*
X183736655Y-121920000D01*
X183850729Y-122493489D01*
X184175585Y-122979670D01*
X184490366Y-123190000D01*
X184175585Y-123400330D01*
X183850729Y-123886511D01*
X183736655Y-124460000D01*
X183850729Y-125033489D01*
X184175585Y-125519670D01*
X184490366Y-125730000D01*
X184175585Y-125940330D01*
X183850729Y-126426511D01*
X183736655Y-127000000D01*
X183850729Y-127573489D01*
X184175585Y-128059670D01*
X184490366Y-128270000D01*
X184175585Y-128480330D01*
X183850729Y-128966511D01*
X183736655Y-129540000D01*
X183850729Y-130113489D01*
X184175585Y-130599670D01*
X184490366Y-130810000D01*
X184175585Y-131020330D01*
X183850729Y-131506511D01*
X183736655Y-132080000D01*
X183850729Y-132653489D01*
X184175585Y-133139670D01*
X184490366Y-133350000D01*
X184175585Y-133560330D01*
X183850729Y-134046511D01*
X183736655Y-134620000D01*
X183850729Y-135193489D01*
X184175585Y-135679670D01*
X184661766Y-136004526D01*
X185235255Y-136118600D01*
X185604745Y-136118600D01*
X186178234Y-136004526D01*
X186664415Y-135679670D01*
X186989271Y-135193489D01*
X187031930Y-134979026D01*
X188892642Y-134979026D01*
X188895291Y-134994791D01*
X189149268Y-135522036D01*
X189585680Y-135911954D01*
X190138087Y-136105184D01*
X190373000Y-135960924D01*
X190373000Y-134747000D01*
X190627000Y-134747000D01*
X190627000Y-135960924D01*
X190861913Y-136105184D01*
X191414320Y-135911954D01*
X191850732Y-135522036D01*
X192104709Y-134994791D01*
X192107358Y-134979026D01*
X191986217Y-134747000D01*
X190627000Y-134747000D01*
X190373000Y-134747000D01*
X189013783Y-134747000D01*
X188892642Y-134979026D01*
X187031930Y-134979026D01*
X187103345Y-134620000D01*
X186989271Y-134046511D01*
X186664415Y-133560330D01*
X186349634Y-133350000D01*
X186664415Y-133139670D01*
X186989271Y-132653489D01*
X187031930Y-132439026D01*
X188892642Y-132439026D01*
X188895291Y-132454791D01*
X189149268Y-132982036D01*
X189561108Y-133350000D01*
X189149268Y-133717964D01*
X188895291Y-134245209D01*
X188892642Y-134260974D01*
X189013783Y-134493000D01*
X190373000Y-134493000D01*
X190373000Y-132207000D01*
X190627000Y-132207000D01*
X190627000Y-134493000D01*
X191986217Y-134493000D01*
X192107358Y-134260974D01*
X192104709Y-134245209D01*
X191850732Y-133717964D01*
X191438892Y-133350000D01*
X191850732Y-132982036D01*
X192104709Y-132454791D01*
X192107358Y-132439026D01*
X191986217Y-132207000D01*
X190627000Y-132207000D01*
X190373000Y-132207000D01*
X189013783Y-132207000D01*
X188892642Y-132439026D01*
X187031930Y-132439026D01*
X187103345Y-132080000D01*
X186989271Y-131506511D01*
X186664415Y-131020330D01*
X186349634Y-130810000D01*
X186664415Y-130599670D01*
X186989271Y-130113489D01*
X187031930Y-129899026D01*
X188892642Y-129899026D01*
X188895291Y-129914791D01*
X189149268Y-130442036D01*
X189561108Y-130810000D01*
X189149268Y-131177964D01*
X188895291Y-131705209D01*
X188892642Y-131720974D01*
X189013783Y-131953000D01*
X190373000Y-131953000D01*
X190373000Y-129667000D01*
X190627000Y-129667000D01*
X190627000Y-131953000D01*
X191986217Y-131953000D01*
X192107358Y-131720974D01*
X192104709Y-131705209D01*
X191850732Y-131177964D01*
X191438892Y-130810000D01*
X191850732Y-130442036D01*
X192104709Y-129914791D01*
X192107358Y-129899026D01*
X191986217Y-129667000D01*
X190627000Y-129667000D01*
X190373000Y-129667000D01*
X189013783Y-129667000D01*
X188892642Y-129899026D01*
X187031930Y-129899026D01*
X187103345Y-129540000D01*
X186989271Y-128966511D01*
X186664415Y-128480330D01*
X186349634Y-128270000D01*
X186664415Y-128059670D01*
X186989271Y-127573489D01*
X187031930Y-127359026D01*
X188892642Y-127359026D01*
X188895291Y-127374791D01*
X189149268Y-127902036D01*
X189561108Y-128270000D01*
X189149268Y-128637964D01*
X188895291Y-129165209D01*
X188892642Y-129180974D01*
X189013783Y-129413000D01*
X190373000Y-129413000D01*
X190373000Y-127127000D01*
X190627000Y-127127000D01*
X190627000Y-129413000D01*
X191986217Y-129413000D01*
X192107358Y-129180974D01*
X192104709Y-129165209D01*
X191850732Y-128637964D01*
X191438892Y-128270000D01*
X191850732Y-127902036D01*
X192104709Y-127374791D01*
X192107358Y-127359026D01*
X191986217Y-127127000D01*
X190627000Y-127127000D01*
X190373000Y-127127000D01*
X189013783Y-127127000D01*
X188892642Y-127359026D01*
X187031930Y-127359026D01*
X187103345Y-127000000D01*
X186989271Y-126426511D01*
X186664415Y-125940330D01*
X186349634Y-125730000D01*
X186664415Y-125519670D01*
X186989271Y-125033489D01*
X187031930Y-124819026D01*
X188892642Y-124819026D01*
X188895291Y-124834791D01*
X189149268Y-125362036D01*
X189561108Y-125730000D01*
X189149268Y-126097964D01*
X188895291Y-126625209D01*
X188892642Y-126640974D01*
X189013783Y-126873000D01*
X190373000Y-126873000D01*
X190373000Y-124587000D01*
X190627000Y-124587000D01*
X190627000Y-126873000D01*
X191986217Y-126873000D01*
X192107358Y-126640974D01*
X192104709Y-126625209D01*
X191850732Y-126097964D01*
X191438892Y-125730000D01*
X191850732Y-125362036D01*
X192104709Y-124834791D01*
X192107358Y-124819026D01*
X191986217Y-124587000D01*
X190627000Y-124587000D01*
X190373000Y-124587000D01*
X189013783Y-124587000D01*
X188892642Y-124819026D01*
X187031930Y-124819026D01*
X187103345Y-124460000D01*
X186989271Y-123886511D01*
X186664415Y-123400330D01*
X186349634Y-123190000D01*
X186664415Y-122979670D01*
X186989271Y-122493489D01*
X187031930Y-122279026D01*
X188892642Y-122279026D01*
X188895291Y-122294791D01*
X189149268Y-122822036D01*
X189561108Y-123190000D01*
X189149268Y-123557964D01*
X188895291Y-124085209D01*
X188892642Y-124100974D01*
X189013783Y-124333000D01*
X190373000Y-124333000D01*
X190373000Y-122047000D01*
X190627000Y-122047000D01*
X190627000Y-124333000D01*
X191986217Y-124333000D01*
X192107358Y-124100974D01*
X192104709Y-124085209D01*
X191850732Y-123557964D01*
X191438892Y-123190000D01*
X191850732Y-122822036D01*
X192104709Y-122294791D01*
X192107358Y-122279026D01*
X191986217Y-122047000D01*
X190627000Y-122047000D01*
X190373000Y-122047000D01*
X189013783Y-122047000D01*
X188892642Y-122279026D01*
X187031930Y-122279026D01*
X187103345Y-121920000D01*
X186989271Y-121346511D01*
X186664415Y-120860330D01*
X186349634Y-120650000D01*
X186664415Y-120439670D01*
X186989271Y-119953489D01*
X187031930Y-119739026D01*
X188892642Y-119739026D01*
X188895291Y-119754791D01*
X189149268Y-120282036D01*
X189561108Y-120650000D01*
X189149268Y-121017964D01*
X188895291Y-121545209D01*
X188892642Y-121560974D01*
X189013783Y-121793000D01*
X190373000Y-121793000D01*
X190373000Y-119507000D01*
X190627000Y-119507000D01*
X190627000Y-121793000D01*
X191986217Y-121793000D01*
X192107358Y-121560974D01*
X192104709Y-121545209D01*
X191850732Y-121017964D01*
X191438892Y-120650000D01*
X191850732Y-120282036D01*
X192104709Y-119754791D01*
X192107358Y-119739026D01*
X191986217Y-119507000D01*
X190627000Y-119507000D01*
X190373000Y-119507000D01*
X189013783Y-119507000D01*
X188892642Y-119739026D01*
X187031930Y-119739026D01*
X187103345Y-119380000D01*
X186989271Y-118806511D01*
X186664415Y-118320330D01*
X186349634Y-118110000D01*
X186664415Y-117899670D01*
X186989271Y-117413489D01*
X187031930Y-117199026D01*
X188892642Y-117199026D01*
X188895291Y-117214791D01*
X189149268Y-117742036D01*
X189561108Y-118110000D01*
X189149268Y-118477964D01*
X188895291Y-119005209D01*
X188892642Y-119020974D01*
X189013783Y-119253000D01*
X190373000Y-119253000D01*
X190373000Y-116967000D01*
X190627000Y-116967000D01*
X190627000Y-119253000D01*
X191986217Y-119253000D01*
X192107358Y-119020974D01*
X192104709Y-119005209D01*
X191850732Y-118477964D01*
X191438892Y-118110000D01*
X191850732Y-117742036D01*
X192104709Y-117214791D01*
X192107358Y-117199026D01*
X191986217Y-116967000D01*
X190627000Y-116967000D01*
X190373000Y-116967000D01*
X189013783Y-116967000D01*
X188892642Y-117199026D01*
X187031930Y-117199026D01*
X187103345Y-116840000D01*
X186989271Y-116266511D01*
X186664415Y-115780330D01*
X186349634Y-115570000D01*
X186664415Y-115359670D01*
X186989271Y-114873489D01*
X187031930Y-114659026D01*
X188892642Y-114659026D01*
X188895291Y-114674791D01*
X189149268Y-115202036D01*
X189561108Y-115570000D01*
X189149268Y-115937964D01*
X188895291Y-116465209D01*
X188892642Y-116480974D01*
X189013783Y-116713000D01*
X190373000Y-116713000D01*
X190373000Y-114427000D01*
X190627000Y-114427000D01*
X190627000Y-116713000D01*
X191986217Y-116713000D01*
X192107358Y-116480974D01*
X192104709Y-116465209D01*
X191850732Y-115937964D01*
X191438892Y-115570000D01*
X191850732Y-115202036D01*
X192104709Y-114674791D01*
X192107358Y-114659026D01*
X191986217Y-114427000D01*
X190627000Y-114427000D01*
X190373000Y-114427000D01*
X189013783Y-114427000D01*
X188892642Y-114659026D01*
X187031930Y-114659026D01*
X187103345Y-114300000D01*
X186989271Y-113726511D01*
X186664415Y-113240330D01*
X186650087Y-113230757D01*
X186671317Y-113226762D01*
X186887441Y-113087690D01*
X187032431Y-112875490D01*
X187083440Y-112623600D01*
X187083440Y-112045750D01*
X188849000Y-112045750D01*
X188849000Y-112749910D01*
X188945673Y-112983299D01*
X189124302Y-113161927D01*
X189321861Y-113243759D01*
X189149268Y-113397964D01*
X188895291Y-113925209D01*
X188892642Y-113940974D01*
X189013783Y-114173000D01*
X190373000Y-114173000D01*
X190373000Y-111887000D01*
X190627000Y-111887000D01*
X190627000Y-114173000D01*
X191986217Y-114173000D01*
X192107358Y-113940974D01*
X192104709Y-113925209D01*
X191850732Y-113397964D01*
X191678139Y-113243759D01*
X191875698Y-113161927D01*
X192054327Y-112983299D01*
X192151000Y-112749910D01*
X192151000Y-112045750D01*
X191992250Y-111887000D01*
X190627000Y-111887000D01*
X190373000Y-111887000D01*
X189007750Y-111887000D01*
X188849000Y-112045750D01*
X187083440Y-112045750D01*
X187083440Y-110896400D01*
X187059674Y-110770090D01*
X188849000Y-110770090D01*
X188849000Y-111474250D01*
X189007750Y-111633000D01*
X190373000Y-111633000D01*
X190373000Y-110420150D01*
X190627000Y-110420150D01*
X190627000Y-111633000D01*
X191992250Y-111633000D01*
X192151000Y-111474250D01*
X192151000Y-110770090D01*
X192054327Y-110536701D01*
X191875698Y-110358073D01*
X191642309Y-110261400D01*
X190785750Y-110261400D01*
X190627000Y-110420150D01*
X190373000Y-110420150D01*
X190214250Y-110261400D01*
X189357691Y-110261400D01*
X189124302Y-110358073D01*
X188945673Y-110536701D01*
X188849000Y-110770090D01*
X187059674Y-110770090D01*
X187039162Y-110661083D01*
X186900090Y-110444959D01*
X186687890Y-110299969D01*
X186436000Y-110248960D01*
X184404000Y-110248960D01*
X184168683Y-110293238D01*
X183952559Y-110432310D01*
X183807569Y-110644510D01*
X183756560Y-110896400D01*
X183756560Y-112623600D01*
X183800838Y-112858917D01*
X183939910Y-113075041D01*
X184152110Y-113220031D01*
X184193439Y-113228400D01*
X184175585Y-113240330D01*
X183850729Y-113726511D01*
X183736655Y-114300000D01*
X182003440Y-114300000D01*
X182003440Y-113436400D01*
X181959162Y-113201083D01*
X181820090Y-112984959D01*
X181607890Y-112839969D01*
X181356000Y-112788960D01*
X179324000Y-112788960D01*
X179088683Y-112833238D01*
X178872559Y-112972310D01*
X178727569Y-113184510D01*
X178681704Y-113411000D01*
X176918661Y-113411000D01*
X176879162Y-113201083D01*
X176740090Y-112984959D01*
X176527890Y-112839969D01*
X176276000Y-112788960D01*
X174244000Y-112788960D01*
X174008683Y-112833238D01*
X173792559Y-112972310D01*
X173647569Y-113184510D01*
X173609000Y-113374969D01*
X173609000Y-107873325D01*
X173809029Y-107739670D01*
X174133885Y-107253489D01*
X174247959Y-106680000D01*
X174133885Y-106106511D01*
X173809029Y-105620330D01*
X173322848Y-105295474D01*
X172749359Y-105181400D01*
X172690641Y-105181400D01*
X172117152Y-105295474D01*
X171651558Y-105606574D01*
X171646762Y-105581083D01*
X171507690Y-105364959D01*
X171295490Y-105219969D01*
X171069000Y-105174104D01*
X171069000Y-104140000D01*
X171001329Y-103799794D01*
X170808618Y-103511382D01*
X169538618Y-102241382D01*
X169250206Y-102048671D01*
X168910000Y-101981000D01*
X163753325Y-101981000D01*
X163619670Y-101780971D01*
X163348839Y-101600008D01*
X163766821Y-101218490D01*
X164014968Y-100689027D01*
X163894469Y-100457000D01*
X162687000Y-100457000D01*
X162687000Y-100477000D01*
X162433000Y-100477000D01*
X162433000Y-100457000D01*
X160147000Y-100457000D01*
X160147000Y-100477000D01*
X159893000Y-100477000D01*
X159893000Y-100457000D01*
X158685531Y-100457000D01*
X158565032Y-100689027D01*
X158813179Y-101218490D01*
X159231161Y-101600008D01*
X158960330Y-101780971D01*
X158826675Y-101981000D01*
X158750000Y-101981000D01*
X158409795Y-102048670D01*
X158121382Y-102241382D01*
X157486382Y-102876382D01*
X157293671Y-103164794D01*
X157226000Y-103505000D01*
X157226000Y-111760000D01*
X157293671Y-112100206D01*
X157486382Y-112388618D01*
X157987047Y-112889283D01*
X157864970Y-112865000D01*
X157095030Y-112865000D01*
X156545879Y-112974233D01*
X156080332Y-113285302D01*
X155996343Y-113411000D01*
X154058661Y-113411000D01*
X154019162Y-113201083D01*
X153880090Y-112984959D01*
X153667890Y-112839969D01*
X153416000Y-112788960D01*
X151384000Y-112788960D01*
X151148683Y-112833238D01*
X150932559Y-112972310D01*
X150787569Y-113184510D01*
X150736560Y-113436400D01*
X150736560Y-115163600D01*
X150780838Y-115398917D01*
X150919910Y-115615041D01*
X151132110Y-115760031D01*
X151173439Y-115768400D01*
X151155585Y-115780330D01*
X150830729Y-116266511D01*
X150716655Y-116840000D01*
X149003345Y-116840000D01*
X148889271Y-116266511D01*
X148564415Y-115780330D01*
X148550087Y-115770757D01*
X148571317Y-115766762D01*
X148787441Y-115627690D01*
X148932431Y-115415490D01*
X148983440Y-115163600D01*
X148983440Y-113436400D01*
X148939162Y-113201083D01*
X148800090Y-112984959D01*
X148587890Y-112839969D01*
X148336000Y-112788960D01*
X146304000Y-112788960D01*
X146068683Y-112833238D01*
X145852559Y-112972310D01*
X145707569Y-113184510D01*
X145661704Y-113411000D01*
X143898661Y-113411000D01*
X143859162Y-113201083D01*
X143720090Y-112984959D01*
X143507890Y-112839969D01*
X143256000Y-112788960D01*
X141224000Y-112788960D01*
X140988683Y-112833238D01*
X140772559Y-112972310D01*
X140627569Y-113184510D01*
X140576560Y-113436400D01*
X140576560Y-115163600D01*
X140620838Y-115398917D01*
X140759910Y-115615041D01*
X140972110Y-115760031D01*
X141013439Y-115768400D01*
X140995585Y-115780330D01*
X140670729Y-116266511D01*
X140556655Y-116840000D01*
X138843345Y-116840000D01*
X138729271Y-116266511D01*
X138404415Y-115780330D01*
X138089634Y-115570000D01*
X138404415Y-115359670D01*
X138729271Y-114873489D01*
X138843345Y-114300000D01*
X138729271Y-113726511D01*
X138404415Y-113240330D01*
X138390087Y-113230757D01*
X138411317Y-113226762D01*
X138627441Y-113087690D01*
X138772431Y-112875490D01*
X138823440Y-112623600D01*
X138823440Y-110896400D01*
X138779162Y-110661083D01*
X138640090Y-110444959D01*
X138427890Y-110299969D01*
X138176000Y-110248960D01*
X136144000Y-110248960D01*
X135908683Y-110293238D01*
X135692559Y-110432310D01*
X135547569Y-110644510D01*
X135496560Y-110896400D01*
X135496560Y-112623600D01*
X135540838Y-112858917D01*
X135679910Y-113075041D01*
X135892110Y-113220031D01*
X135933439Y-113228400D01*
X135915585Y-113240330D01*
X135590729Y-113726511D01*
X135476655Y-114300000D01*
X130302000Y-114300000D01*
X130302000Y-112045750D01*
X130429000Y-112045750D01*
X130429000Y-112749910D01*
X130525673Y-112983299D01*
X130704302Y-113161927D01*
X130901861Y-113243759D01*
X130729268Y-113397964D01*
X130475291Y-113925209D01*
X130472642Y-113940974D01*
X130593783Y-114173000D01*
X131953000Y-114173000D01*
X131953000Y-111887000D01*
X132207000Y-111887000D01*
X132207000Y-114173000D01*
X133566217Y-114173000D01*
X133687358Y-113940974D01*
X133684709Y-113925209D01*
X133430732Y-113397964D01*
X133258139Y-113243759D01*
X133455698Y-113161927D01*
X133634327Y-112983299D01*
X133731000Y-112749910D01*
X133731000Y-112045750D01*
X133572250Y-111887000D01*
X132207000Y-111887000D01*
X131953000Y-111887000D01*
X130587750Y-111887000D01*
X130429000Y-112045750D01*
X130302000Y-112045750D01*
X130302000Y-110770090D01*
X130429000Y-110770090D01*
X130429000Y-111474250D01*
X130587750Y-111633000D01*
X131953000Y-111633000D01*
X131953000Y-110420150D01*
X132207000Y-110420150D01*
X132207000Y-111633000D01*
X133572250Y-111633000D01*
X133731000Y-111474250D01*
X133731000Y-110770090D01*
X133634327Y-110536701D01*
X133455698Y-110358073D01*
X133222309Y-110261400D01*
X132365750Y-110261400D01*
X132207000Y-110420150D01*
X131953000Y-110420150D01*
X131794250Y-110261400D01*
X130937691Y-110261400D01*
X130704302Y-110358073D01*
X130525673Y-110536701D01*
X130429000Y-110770090D01*
X130302000Y-110770090D01*
X130302000Y-102594016D01*
X149140590Y-102594016D01*
X149196271Y-102824611D01*
X149679078Y-102992622D01*
X150189428Y-102963083D01*
X150523729Y-102824611D01*
X150579410Y-102594016D01*
X149860000Y-101874605D01*
X149140590Y-102594016D01*
X130302000Y-102594016D01*
X130302000Y-101514078D01*
X148562378Y-101514078D01*
X148591917Y-102024428D01*
X148730389Y-102358729D01*
X148960984Y-102414410D01*
X149680395Y-101695000D01*
X149666252Y-101680858D01*
X149845858Y-101501252D01*
X149860000Y-101515395D01*
X149874142Y-101501252D01*
X150053748Y-101680858D01*
X150039605Y-101695000D01*
X150759016Y-102414410D01*
X150989611Y-102358729D01*
X151157622Y-101875922D01*
X151128083Y-101365572D01*
X150989611Y-101031271D01*
X150759018Y-100975590D01*
X150860680Y-100873928D01*
X150961441Y-100809090D01*
X151106431Y-100596890D01*
X151157440Y-100345000D01*
X151157440Y-99045000D01*
X151113162Y-98809683D01*
X150974090Y-98593559D01*
X150761890Y-98448569D01*
X150510000Y-98397560D01*
X149210000Y-98397560D01*
X148974683Y-98441838D01*
X148758559Y-98580910D01*
X148613569Y-98793110D01*
X148562560Y-99045000D01*
X148562560Y-100345000D01*
X148606838Y-100580317D01*
X148745910Y-100796441D01*
X148859329Y-100873937D01*
X148960982Y-100975590D01*
X148730389Y-101031271D01*
X148562378Y-101514078D01*
X130302000Y-101514078D01*
X130302000Y-98149027D01*
X158565032Y-98149027D01*
X158813179Y-98678490D01*
X159231152Y-99060000D01*
X158813179Y-99441510D01*
X158565032Y-99970973D01*
X158685531Y-100203000D01*
X159893000Y-100203000D01*
X159893000Y-97917000D01*
X160147000Y-97917000D01*
X160147000Y-100203000D01*
X162433000Y-100203000D01*
X162433000Y-97917000D01*
X162687000Y-97917000D01*
X162687000Y-100203000D01*
X163894469Y-100203000D01*
X164014968Y-99970973D01*
X163766821Y-99441510D01*
X163348848Y-99060000D01*
X163766821Y-98678490D01*
X164014968Y-98149027D01*
X163894469Y-97917000D01*
X162687000Y-97917000D01*
X162433000Y-97917000D01*
X160147000Y-97917000D01*
X159893000Y-97917000D01*
X158685531Y-97917000D01*
X158565032Y-98149027D01*
X130302000Y-98149027D01*
X130302000Y-92834482D01*
X130784336Y-92834482D01*
X131366950Y-94244515D01*
X132444811Y-95324259D01*
X133853825Y-95909333D01*
X135379482Y-95910664D01*
X136789515Y-95328050D01*
X137869259Y-94250189D01*
X138454333Y-92841175D01*
X138455200Y-91846400D01*
X158508960Y-91846400D01*
X158508960Y-93573600D01*
X158553238Y-93808917D01*
X158692310Y-94025041D01*
X158904510Y-94170031D01*
X158948345Y-94178908D01*
X158635474Y-94647152D01*
X158521400Y-95220641D01*
X158521400Y-95279359D01*
X158635474Y-95852848D01*
X158960330Y-96339029D01*
X159231161Y-96519992D01*
X158813179Y-96901510D01*
X158565032Y-97430973D01*
X158685531Y-97663000D01*
X159893000Y-97663000D01*
X159893000Y-97643000D01*
X160147000Y-97643000D01*
X160147000Y-97663000D01*
X162433000Y-97663000D01*
X162433000Y-97643000D01*
X162687000Y-97643000D01*
X162687000Y-97663000D01*
X163894469Y-97663000D01*
X164014968Y-97430973D01*
X163766821Y-96901510D01*
X163348839Y-96519992D01*
X163619670Y-96339029D01*
X163944526Y-95852848D01*
X164058600Y-95279359D01*
X164058600Y-95220641D01*
X163944526Y-94647152D01*
X163619670Y-94160971D01*
X163348828Y-93980000D01*
X163619670Y-93799029D01*
X163944526Y-93312848D01*
X164058600Y-92739359D01*
X164058600Y-92680641D01*
X163944526Y-92107152D01*
X163619670Y-91620971D01*
X163133489Y-91296115D01*
X162560000Y-91182041D01*
X161986511Y-91296115D01*
X161500330Y-91620971D01*
X161491195Y-91634642D01*
X161486762Y-91611083D01*
X161347690Y-91394959D01*
X161135490Y-91249969D01*
X160883600Y-91198960D01*
X159156400Y-91198960D01*
X158921083Y-91243238D01*
X158704959Y-91382310D01*
X158559969Y-91594510D01*
X158508960Y-91846400D01*
X138455200Y-91846400D01*
X138455664Y-91315518D01*
X137982346Y-90170000D01*
X170167560Y-90170000D01*
X170167560Y-92710000D01*
X170211838Y-92945317D01*
X170350910Y-93161441D01*
X170563110Y-93306431D01*
X170815000Y-93357440D01*
X173355000Y-93357440D01*
X173590317Y-93313162D01*
X173806441Y-93174090D01*
X173951431Y-92961890D01*
X173986689Y-92787777D01*
X175996828Y-92787777D01*
X176128520Y-93082657D01*
X176836036Y-93354261D01*
X177593632Y-93334436D01*
X178201480Y-93082657D01*
X178312313Y-92834482D01*
X184124336Y-92834482D01*
X184706950Y-94244515D01*
X185784811Y-95324259D01*
X187193825Y-95909333D01*
X188719482Y-95910664D01*
X190129515Y-95328050D01*
X191209259Y-94250189D01*
X191794333Y-92841175D01*
X191795664Y-91315518D01*
X191213050Y-89905485D01*
X190135189Y-88825741D01*
X188726175Y-88240667D01*
X187200518Y-88239336D01*
X185790485Y-88821950D01*
X184710741Y-89899811D01*
X184125667Y-91308825D01*
X184124336Y-92834482D01*
X178312313Y-92834482D01*
X178333172Y-92787777D01*
X177165000Y-91619605D01*
X175996828Y-92787777D01*
X173986689Y-92787777D01*
X174002440Y-92710000D01*
X174002440Y-91111036D01*
X175250739Y-91111036D01*
X175270564Y-91868632D01*
X175522343Y-92476480D01*
X175817223Y-92608172D01*
X176985395Y-91440000D01*
X177344605Y-91440000D01*
X178512777Y-92608172D01*
X178807657Y-92476480D01*
X179079261Y-91768964D01*
X179059436Y-91011368D01*
X178807657Y-90403520D01*
X178512777Y-90271828D01*
X177344605Y-91440000D01*
X176985395Y-91440000D01*
X175817223Y-90271828D01*
X175522343Y-90403520D01*
X175250739Y-91111036D01*
X174002440Y-91111036D01*
X174002440Y-90170000D01*
X173987806Y-90092223D01*
X175996828Y-90092223D01*
X177165000Y-91260395D01*
X178333172Y-90092223D01*
X178201480Y-89797343D01*
X177493964Y-89525739D01*
X176736368Y-89545564D01*
X176128520Y-89797343D01*
X175996828Y-90092223D01*
X173987806Y-90092223D01*
X173958162Y-89934683D01*
X173819090Y-89718559D01*
X173606890Y-89573569D01*
X173355000Y-89522560D01*
X170815000Y-89522560D01*
X170579683Y-89566838D01*
X170363559Y-89705910D01*
X170218569Y-89918110D01*
X170167560Y-90170000D01*
X137982346Y-90170000D01*
X137873050Y-89905485D01*
X136795189Y-88825741D01*
X135386175Y-88240667D01*
X133860518Y-88239336D01*
X132450485Y-88821950D01*
X131370741Y-89899811D01*
X130785667Y-91308825D01*
X130784336Y-92834482D01*
X130302000Y-92834482D01*
X130302000Y-87122000D01*
X192278000Y-87122000D01*
X192278000Y-150368000D01*
X192278000Y-150368000D01*
G37*
X192278000Y-150368000D02*
X130302000Y-150368000D01*
X130302000Y-145539482D01*
X130784336Y-145539482D01*
X131366950Y-146949515D01*
X132444811Y-148029259D01*
X133853825Y-148614333D01*
X135379482Y-148615664D01*
X136789515Y-148033050D01*
X137869259Y-146955189D01*
X138454333Y-145546175D01*
X138455664Y-144020518D01*
X138149689Y-143280000D01*
X144471429Y-143280000D01*
X144471429Y-147250000D01*
X148898572Y-147250000D01*
X148898572Y-143280000D01*
X144471429Y-143280000D01*
X138149689Y-143280000D01*
X137873050Y-142610485D01*
X136795189Y-141530741D01*
X135386175Y-140945667D01*
X133860518Y-140944336D01*
X132450485Y-141526950D01*
X131370741Y-142604811D01*
X130785667Y-144013825D01*
X130784336Y-145539482D01*
X130302000Y-145539482D01*
X130302000Y-136510000D01*
X146022560Y-136510000D01*
X146022560Y-137810000D01*
X146066838Y-138045317D01*
X146205910Y-138261441D01*
X146418110Y-138406431D01*
X146670000Y-138457440D01*
X147970000Y-138457440D01*
X148205317Y-138413162D01*
X148421441Y-138274090D01*
X148566431Y-138061890D01*
X148567012Y-138059016D01*
X151600590Y-138059016D01*
X151656271Y-138289611D01*
X152139078Y-138457622D01*
X152649428Y-138428083D01*
X152983729Y-138289611D01*
X153039410Y-138059016D01*
X152320000Y-137339605D01*
X151600590Y-138059016D01*
X148567012Y-138059016D01*
X148617440Y-137810000D01*
X148617440Y-136979078D01*
X151022378Y-136979078D01*
X151051917Y-137489428D01*
X151190389Y-137823729D01*
X151420984Y-137879410D01*
X152140395Y-137160000D01*
X152499605Y-137160000D01*
X153219016Y-137879410D01*
X153449611Y-137823729D01*
X153617622Y-137340922D01*
X153588083Y-136830572D01*
X153449611Y-136496271D01*
X153219016Y-136440590D01*
X152499605Y-137160000D01*
X152140395Y-137160000D01*
X151420984Y-136440590D01*
X151190389Y-136496271D01*
X151022378Y-136979078D01*
X148617440Y-136979078D01*
X148617440Y-136510000D01*
X148573162Y-136274683D01*
X148564347Y-136260984D01*
X151600590Y-136260984D01*
X152320000Y-136980395D01*
X153039410Y-136260984D01*
X152983729Y-136030389D01*
X152500922Y-135862378D01*
X151990572Y-135891917D01*
X151656271Y-136030389D01*
X151600590Y-136260984D01*
X148564347Y-136260984D01*
X148434090Y-136058559D01*
X148221890Y-135913569D01*
X147970000Y-135862560D01*
X146670000Y-135862560D01*
X146434683Y-135906838D01*
X146218559Y-136045910D01*
X146073569Y-136258110D01*
X146022560Y-136510000D01*
X130302000Y-136510000D01*
X130302000Y-134979026D01*
X130472642Y-134979026D01*
X130475291Y-134994791D01*
X130729268Y-135522036D01*
X131165680Y-135911954D01*
X131718087Y-136105184D01*
X131953000Y-135960924D01*
X131953000Y-134747000D01*
X132207000Y-134747000D01*
X132207000Y-135960924D01*
X132441913Y-136105184D01*
X132994320Y-135911954D01*
X133430732Y-135522036D01*
X133684709Y-134994791D01*
X133687358Y-134979026D01*
X133566217Y-134747000D01*
X132207000Y-134747000D01*
X131953000Y-134747000D01*
X130593783Y-134747000D01*
X130472642Y-134979026D01*
X130302000Y-134979026D01*
X130302000Y-132439026D01*
X130472642Y-132439026D01*
X130475291Y-132454791D01*
X130729268Y-132982036D01*
X131141108Y-133350000D01*
X130729268Y-133717964D01*
X130475291Y-134245209D01*
X130472642Y-134260974D01*
X130593783Y-134493000D01*
X131953000Y-134493000D01*
X131953000Y-132207000D01*
X132207000Y-132207000D01*
X132207000Y-134493000D01*
X133566217Y-134493000D01*
X133687358Y-134260974D01*
X133684709Y-134245209D01*
X133430732Y-133717964D01*
X133018892Y-133350000D01*
X133430732Y-132982036D01*
X133684709Y-132454791D01*
X133687358Y-132439026D01*
X133566217Y-132207000D01*
X132207000Y-132207000D01*
X131953000Y-132207000D01*
X130593783Y-132207000D01*
X130472642Y-132439026D01*
X130302000Y-132439026D01*
X130302000Y-129899026D01*
X130472642Y-129899026D01*
X130475291Y-129914791D01*
X130729268Y-130442036D01*
X131141108Y-130810000D01*
X130729268Y-131177964D01*
X130475291Y-131705209D01*
X130472642Y-131720974D01*
X130593783Y-131953000D01*
X131953000Y-131953000D01*
X131953000Y-129667000D01*
X132207000Y-129667000D01*
X132207000Y-131953000D01*
X133566217Y-131953000D01*
X133687358Y-131720974D01*
X133684709Y-131705209D01*
X133430732Y-131177964D01*
X133018892Y-130810000D01*
X133430732Y-130442036D01*
X133684709Y-129914791D01*
X133687358Y-129899026D01*
X133566217Y-129667000D01*
X132207000Y-129667000D01*
X131953000Y-129667000D01*
X130593783Y-129667000D01*
X130472642Y-129899026D01*
X130302000Y-129899026D01*
X130302000Y-127359026D01*
X130472642Y-127359026D01*
X130475291Y-127374791D01*
X130729268Y-127902036D01*
X131141108Y-128270000D01*
X130729268Y-128637964D01*
X130475291Y-129165209D01*
X130472642Y-129180974D01*
X130593783Y-129413000D01*
X131953000Y-129413000D01*
X131953000Y-127127000D01*
X132207000Y-127127000D01*
X132207000Y-129413000D01*
X133566217Y-129413000D01*
X133687358Y-129180974D01*
X133684709Y-129165209D01*
X133430732Y-128637964D01*
X133018892Y-128270000D01*
X133430732Y-127902036D01*
X133684709Y-127374791D01*
X133687358Y-127359026D01*
X133566217Y-127127000D01*
X132207000Y-127127000D01*
X131953000Y-127127000D01*
X130593783Y-127127000D01*
X130472642Y-127359026D01*
X130302000Y-127359026D01*
X130302000Y-124819026D01*
X130472642Y-124819026D01*
X130475291Y-124834791D01*
X130729268Y-125362036D01*
X131141108Y-125730000D01*
X130729268Y-126097964D01*
X130475291Y-126625209D01*
X130472642Y-126640974D01*
X130593783Y-126873000D01*
X131953000Y-126873000D01*
X131953000Y-124587000D01*
X132207000Y-124587000D01*
X132207000Y-126873000D01*
X133566217Y-126873000D01*
X133687358Y-126640974D01*
X133684709Y-126625209D01*
X133430732Y-126097964D01*
X133018892Y-125730000D01*
X133430732Y-125362036D01*
X133684709Y-124834791D01*
X133687358Y-124819026D01*
X133566217Y-124587000D01*
X132207000Y-124587000D01*
X131953000Y-124587000D01*
X130593783Y-124587000D01*
X130472642Y-124819026D01*
X130302000Y-124819026D01*
X130302000Y-122279026D01*
X130472642Y-122279026D01*
X130475291Y-122294791D01*
X130729268Y-122822036D01*
X131141108Y-123190000D01*
X130729268Y-123557964D01*
X130475291Y-124085209D01*
X130472642Y-124100974D01*
X130593783Y-124333000D01*
X131953000Y-124333000D01*
X131953000Y-122047000D01*
X132207000Y-122047000D01*
X132207000Y-124333000D01*
X133566217Y-124333000D01*
X133687358Y-124100974D01*
X133684709Y-124085209D01*
X133430732Y-123557964D01*
X133018892Y-123190000D01*
X133430732Y-122822036D01*
X133684709Y-122294791D01*
X133687358Y-122279026D01*
X133566217Y-122047000D01*
X132207000Y-122047000D01*
X131953000Y-122047000D01*
X130593783Y-122047000D01*
X130472642Y-122279026D01*
X130302000Y-122279026D01*
X130302000Y-119739026D01*
X130472642Y-119739026D01*
X130475291Y-119754791D01*
X130729268Y-120282036D01*
X131141108Y-120650000D01*
X130729268Y-121017964D01*
X130475291Y-121545209D01*
X130472642Y-121560974D01*
X130593783Y-121793000D01*
X131953000Y-121793000D01*
X131953000Y-119507000D01*
X132207000Y-119507000D01*
X132207000Y-121793000D01*
X133566217Y-121793000D01*
X133687358Y-121560974D01*
X133684709Y-121545209D01*
X133430732Y-121017964D01*
X133018892Y-120650000D01*
X133430732Y-120282036D01*
X133684709Y-119754791D01*
X133687358Y-119739026D01*
X133566217Y-119507000D01*
X132207000Y-119507000D01*
X131953000Y-119507000D01*
X130593783Y-119507000D01*
X130472642Y-119739026D01*
X130302000Y-119739026D01*
X130302000Y-117199026D01*
X130472642Y-117199026D01*
X130475291Y-117214791D01*
X130729268Y-117742036D01*
X131141108Y-118110000D01*
X130729268Y-118477964D01*
X130475291Y-119005209D01*
X130472642Y-119020974D01*
X130593783Y-119253000D01*
X131953000Y-119253000D01*
X131953000Y-116967000D01*
X132207000Y-116967000D01*
X132207000Y-119253000D01*
X133566217Y-119253000D01*
X133687358Y-119020974D01*
X133684709Y-119005209D01*
X133430732Y-118477964D01*
X133018892Y-118110000D01*
X133430732Y-117742036D01*
X133684709Y-117214791D01*
X133687358Y-117199026D01*
X133566217Y-116967000D01*
X132207000Y-116967000D01*
X131953000Y-116967000D01*
X130593783Y-116967000D01*
X130472642Y-117199026D01*
X130302000Y-117199026D01*
X130302000Y-114659026D01*
X130472642Y-114659026D01*
X130475291Y-114674791D01*
X130729268Y-115202036D01*
X131141108Y-115570000D01*
X130729268Y-115937964D01*
X130475291Y-116465209D01*
X130472642Y-116480974D01*
X130593783Y-116713000D01*
X131953000Y-116713000D01*
X131953000Y-114427000D01*
X132207000Y-114427000D01*
X132207000Y-116713000D01*
X133566217Y-116713000D01*
X133687358Y-116480974D01*
X133684709Y-116465209D01*
X133430732Y-115937964D01*
X133018892Y-115570000D01*
X133430732Y-115202036D01*
X133684709Y-114674791D01*
X133687358Y-114659026D01*
X133566217Y-114427000D01*
X132207000Y-114427000D01*
X131953000Y-114427000D01*
X130593783Y-114427000D01*
X130472642Y-114659026D01*
X130302000Y-114659026D01*
X130302000Y-114300000D01*
X135476655Y-114300000D01*
X135590729Y-114873489D01*
X135915585Y-115359670D01*
X136230366Y-115570000D01*
X135915585Y-115780330D01*
X135590729Y-116266511D01*
X135476655Y-116840000D01*
X135590729Y-117413489D01*
X135915585Y-117899670D01*
X136230366Y-118110000D01*
X135915585Y-118320330D01*
X135590729Y-118806511D01*
X135476655Y-119380000D01*
X135590729Y-119953489D01*
X135915585Y-120439670D01*
X136230366Y-120650000D01*
X135915585Y-120860330D01*
X135590729Y-121346511D01*
X135476655Y-121920000D01*
X135590729Y-122493489D01*
X135915585Y-122979670D01*
X136230366Y-123190000D01*
X135915585Y-123400330D01*
X135590729Y-123886511D01*
X135476655Y-124460000D01*
X135590729Y-125033489D01*
X135915585Y-125519670D01*
X136230366Y-125730000D01*
X135915585Y-125940330D01*
X135590729Y-126426511D01*
X135476655Y-127000000D01*
X135590729Y-127573489D01*
X135915585Y-128059670D01*
X136230366Y-128270000D01*
X135915585Y-128480330D01*
X135590729Y-128966511D01*
X135476655Y-129540000D01*
X135590729Y-130113489D01*
X135915585Y-130599670D01*
X136230366Y-130810000D01*
X135915585Y-131020330D01*
X135590729Y-131506511D01*
X135476655Y-132080000D01*
X135590729Y-132653489D01*
X135915585Y-133139670D01*
X136230366Y-133350000D01*
X135915585Y-133560330D01*
X135590729Y-134046511D01*
X135476655Y-134620000D01*
X135590729Y-135193489D01*
X135915585Y-135679670D01*
X136401766Y-136004526D01*
X136975255Y-136118600D01*
X137344745Y-136118600D01*
X137918234Y-136004526D01*
X138404415Y-135679670D01*
X138729271Y-135193489D01*
X138843345Y-134620000D01*
X138729271Y-134046511D01*
X138404415Y-133560330D01*
X138089634Y-133350000D01*
X138404415Y-133139670D01*
X138729271Y-132653489D01*
X138843345Y-132080000D01*
X138729271Y-131506511D01*
X138404415Y-131020330D01*
X138089634Y-130810000D01*
X138404415Y-130599670D01*
X138729271Y-130113489D01*
X138843345Y-129540000D01*
X138729271Y-128966511D01*
X138404415Y-128480330D01*
X138089634Y-128270000D01*
X138404415Y-128059670D01*
X138729271Y-127573489D01*
X138843345Y-127000000D01*
X138729271Y-126426511D01*
X138404415Y-125940330D01*
X138089634Y-125730000D01*
X138404415Y-125519670D01*
X138729271Y-125033489D01*
X138843345Y-124460000D01*
X138729271Y-123886511D01*
X138404415Y-123400330D01*
X138089634Y-123190000D01*
X138404415Y-122979670D01*
X138729271Y-122493489D01*
X138843345Y-121920000D01*
X138729271Y-121346511D01*
X138404415Y-120860330D01*
X138089634Y-120650000D01*
X138404415Y-120439670D01*
X138729271Y-119953489D01*
X138843345Y-119380000D01*
X138729271Y-118806511D01*
X138404415Y-118320330D01*
X138089634Y-118110000D01*
X138404415Y-117899670D01*
X138729271Y-117413489D01*
X138843345Y-116840000D01*
X140556655Y-116840000D01*
X140670729Y-117413489D01*
X140995585Y-117899670D01*
X141310366Y-118110000D01*
X140995585Y-118320330D01*
X140670729Y-118806511D01*
X140556655Y-119380000D01*
X140670729Y-119953489D01*
X140995585Y-120439670D01*
X141310366Y-120650000D01*
X140995585Y-120860330D01*
X140670729Y-121346511D01*
X140556655Y-121920000D01*
X140670729Y-122493489D01*
X140995585Y-122979670D01*
X141310366Y-123190000D01*
X140995585Y-123400330D01*
X140670729Y-123886511D01*
X140556655Y-124460000D01*
X140670729Y-125033489D01*
X140995585Y-125519670D01*
X141310366Y-125730000D01*
X140995585Y-125940330D01*
X140670729Y-126426511D01*
X140556655Y-127000000D01*
X140670729Y-127573489D01*
X140995585Y-128059670D01*
X141310366Y-128270000D01*
X140995585Y-128480330D01*
X140670729Y-128966511D01*
X140556655Y-129540000D01*
X140670729Y-130113489D01*
X140995585Y-130599670D01*
X141310366Y-130810000D01*
X140995585Y-131020330D01*
X140670729Y-131506511D01*
X140556655Y-132080000D01*
X140670729Y-132653489D01*
X140995585Y-133139670D01*
X141481766Y-133464526D01*
X142055255Y-133578600D01*
X142424745Y-133578600D01*
X142998234Y-133464526D01*
X143484415Y-133139670D01*
X143598453Y-132969000D01*
X145961547Y-132969000D01*
X146075585Y-133139670D01*
X146561766Y-133464526D01*
X147135255Y-133578600D01*
X147504745Y-133578600D01*
X148078234Y-133464526D01*
X148564415Y-133139670D01*
X148889271Y-132653489D01*
X149003345Y-132080000D01*
X148889271Y-131506511D01*
X148564415Y-131020330D01*
X148249634Y-130810000D01*
X148564415Y-130599670D01*
X148889271Y-130113489D01*
X149003345Y-129540000D01*
X148889271Y-128966511D01*
X148564415Y-128480330D01*
X148249634Y-128270000D01*
X148564415Y-128059670D01*
X148889271Y-127573489D01*
X149003345Y-127000000D01*
X148889271Y-126426511D01*
X148564415Y-125940330D01*
X148249634Y-125730000D01*
X148564415Y-125519670D01*
X148889271Y-125033489D01*
X149003345Y-124460000D01*
X148889271Y-123886511D01*
X148564415Y-123400330D01*
X148249634Y-123190000D01*
X148564415Y-122979670D01*
X148889271Y-122493489D01*
X149003345Y-121920000D01*
X148889271Y-121346511D01*
X148564415Y-120860330D01*
X148249634Y-120650000D01*
X148564415Y-120439670D01*
X148889271Y-119953489D01*
X149003345Y-119380000D01*
X148889271Y-118806511D01*
X148564415Y-118320330D01*
X148249634Y-118110000D01*
X148564415Y-117899670D01*
X148889271Y-117413489D01*
X149003345Y-116840000D01*
X150716655Y-116840000D01*
X150830729Y-117413489D01*
X151155585Y-117899670D01*
X151470366Y-118110000D01*
X151155585Y-118320330D01*
X150830729Y-118806511D01*
X150716655Y-119380000D01*
X150830729Y-119953489D01*
X151155585Y-120439670D01*
X151470366Y-120650000D01*
X151155585Y-120860330D01*
X150830729Y-121346511D01*
X150716655Y-121920000D01*
X150830729Y-122493489D01*
X151155585Y-122979670D01*
X151470366Y-123190000D01*
X151155585Y-123400330D01*
X150830729Y-123886511D01*
X150716655Y-124460000D01*
X150830729Y-125033489D01*
X151155585Y-125519670D01*
X151470366Y-125730000D01*
X151155585Y-125940330D01*
X150830729Y-126426511D01*
X150716655Y-127000000D01*
X150830729Y-127573489D01*
X151155585Y-128059670D01*
X151470366Y-128270000D01*
X151155585Y-128480330D01*
X150830729Y-128966511D01*
X150716655Y-129540000D01*
X150830729Y-130113489D01*
X151155585Y-130599670D01*
X151470366Y-130810000D01*
X151155585Y-131020330D01*
X150830729Y-131506511D01*
X150716655Y-132080000D01*
X150830729Y-132653489D01*
X151155585Y-133139670D01*
X151641766Y-133464526D01*
X152215255Y-133578600D01*
X152584745Y-133578600D01*
X153158234Y-133464526D01*
X153644415Y-133139670D01*
X153758453Y-132969000D01*
X155996343Y-132969000D01*
X156080332Y-133094698D01*
X156462418Y-133350000D01*
X156080332Y-133605302D01*
X155769263Y-134070849D01*
X155660030Y-134620000D01*
X155769263Y-135169151D01*
X156080332Y-135634698D01*
X156458151Y-135887149D01*
X156025500Y-136235104D01*
X155755633Y-136728181D01*
X155738096Y-136810961D01*
X155860085Y-137033000D01*
X157353000Y-137033000D01*
X157353000Y-137013000D01*
X157607000Y-137013000D01*
X157607000Y-137033000D01*
X157627000Y-137033000D01*
X157627000Y-137287000D01*
X157607000Y-137287000D01*
X157607000Y-137307000D01*
X157353000Y-137307000D01*
X157353000Y-137287000D01*
X155860085Y-137287000D01*
X155738096Y-137509039D01*
X155744867Y-137541000D01*
X155575000Y-137541000D01*
X155234795Y-137608670D01*
X154946382Y-137801382D01*
X154311382Y-138436382D01*
X154118671Y-138724794D01*
X154051000Y-139065000D01*
X154051000Y-145415000D01*
X154118671Y-145755206D01*
X154205397Y-145885000D01*
X154311382Y-146043618D01*
X154946382Y-146678618D01*
X155234795Y-146871330D01*
X155575000Y-146939000D01*
X155735816Y-146939000D01*
X155660030Y-147320000D01*
X155769263Y-147869151D01*
X156080332Y-148334698D01*
X156545879Y-148645767D01*
X157095030Y-148755000D01*
X157864970Y-148755000D01*
X158414121Y-148645767D01*
X158879668Y-148334698D01*
X159190737Y-147869151D01*
X159299970Y-147320000D01*
X159224184Y-146939000D01*
X161925000Y-146939000D01*
X162265206Y-146871329D01*
X162553618Y-146678618D01*
X163188618Y-146043618D01*
X163381330Y-145755205D01*
X163448455Y-145417738D01*
X163700332Y-145794698D01*
X164082418Y-146050000D01*
X163700332Y-146305302D01*
X163389263Y-146770849D01*
X163280030Y-147320000D01*
X163389263Y-147869151D01*
X163700332Y-148334698D01*
X164165879Y-148645767D01*
X164715030Y-148755000D01*
X165484970Y-148755000D01*
X166034121Y-148645767D01*
X166499668Y-148334698D01*
X166616406Y-148159987D01*
X166710206Y-148141329D01*
X166998618Y-147948618D01*
X168008236Y-146939000D01*
X168668960Y-146939000D01*
X168668960Y-148971000D01*
X168713238Y-149206317D01*
X168852310Y-149422441D01*
X169064510Y-149567431D01*
X169316400Y-149618440D01*
X171043600Y-149618440D01*
X171278917Y-149574162D01*
X171495041Y-149435090D01*
X171640031Y-149222890D01*
X171648400Y-149181561D01*
X171660330Y-149199415D01*
X172146511Y-149524271D01*
X172720000Y-149638345D01*
X173293489Y-149524271D01*
X173779670Y-149199415D01*
X173990000Y-148884634D01*
X174200330Y-149199415D01*
X174686511Y-149524271D01*
X175260000Y-149638345D01*
X175833489Y-149524271D01*
X176319670Y-149199415D01*
X176644526Y-148713234D01*
X176758600Y-148139745D01*
X176758600Y-147770255D01*
X176644526Y-147196766D01*
X176319670Y-146710585D01*
X175833489Y-146385729D01*
X175260000Y-146271655D01*
X174686511Y-146385729D01*
X174200330Y-146710585D01*
X173990000Y-147025366D01*
X173779670Y-146710585D01*
X173588709Y-146582989D01*
X173567211Y-146474910D01*
X173541330Y-146344795D01*
X173348618Y-146056382D01*
X173024736Y-145732500D01*
X173217754Y-145539482D01*
X184124336Y-145539482D01*
X184706950Y-146949515D01*
X185784811Y-148029259D01*
X187193825Y-148614333D01*
X188719482Y-148615664D01*
X190129515Y-148033050D01*
X191209259Y-146955189D01*
X191794333Y-145546175D01*
X191795664Y-144020518D01*
X191213050Y-142610485D01*
X190135189Y-141530741D01*
X188726175Y-140945667D01*
X187200518Y-140944336D01*
X185790485Y-141526950D01*
X184710741Y-142604811D01*
X184125667Y-144013825D01*
X184124336Y-145539482D01*
X173217754Y-145539482D01*
X173348618Y-145408618D01*
X173401716Y-145329151D01*
X173541329Y-145120206D01*
X173588709Y-144882011D01*
X173779670Y-144754415D01*
X173990000Y-144439634D01*
X174200330Y-144754415D01*
X174686511Y-145079271D01*
X175260000Y-145193345D01*
X175833489Y-145079271D01*
X176319670Y-144754415D01*
X176644526Y-144268234D01*
X176758600Y-143694745D01*
X176758600Y-143325255D01*
X176644526Y-142751766D01*
X176319670Y-142265585D01*
X175833489Y-141940729D01*
X175260000Y-141826655D01*
X174686511Y-141940729D01*
X174200330Y-142265585D01*
X173990000Y-142580366D01*
X173779670Y-142265585D01*
X173293489Y-141940729D01*
X173054120Y-141893116D01*
X173348618Y-141598618D01*
X173541330Y-141310205D01*
X173609000Y-140970000D01*
X173609000Y-140423453D01*
X173779670Y-140309415D01*
X173990000Y-139994634D01*
X174200330Y-140309415D01*
X174686511Y-140634271D01*
X175260000Y-140748345D01*
X175833489Y-140634271D01*
X176319670Y-140309415D01*
X176644526Y-139823234D01*
X176758600Y-139249745D01*
X176758600Y-138880255D01*
X176644526Y-138306766D01*
X176319670Y-137820585D01*
X175833489Y-137495729D01*
X175260000Y-137381655D01*
X174686511Y-137495729D01*
X174200330Y-137820585D01*
X173990000Y-138135366D01*
X173779670Y-137820585D01*
X173293489Y-137495729D01*
X172720000Y-137381655D01*
X172146511Y-137495729D01*
X171660330Y-137820585D01*
X171650757Y-137834913D01*
X171646762Y-137813683D01*
X171507690Y-137597559D01*
X171295490Y-137452569D01*
X171043600Y-137401560D01*
X169316400Y-137401560D01*
X169081083Y-137445838D01*
X168864959Y-137584910D01*
X168719969Y-137797110D01*
X168668960Y-138049000D01*
X168668960Y-140081000D01*
X168713238Y-140316317D01*
X168852310Y-140532441D01*
X169064510Y-140677431D01*
X169254969Y-140716000D01*
X167640000Y-140716000D01*
X167299795Y-140783670D01*
X167011382Y-140976382D01*
X166636764Y-141351000D01*
X166583657Y-141351000D01*
X166499668Y-141225302D01*
X166117582Y-140970000D01*
X166499668Y-140714698D01*
X166810737Y-140249151D01*
X166919970Y-139700000D01*
X166810737Y-139150849D01*
X166499668Y-138685302D01*
X166117582Y-138430000D01*
X166499668Y-138174698D01*
X166810737Y-137709151D01*
X166919970Y-137160000D01*
X166810737Y-136610849D01*
X166499668Y-136145302D01*
X166117582Y-135890000D01*
X166499668Y-135634698D01*
X166583657Y-135509000D01*
X172085000Y-135509000D01*
X172425206Y-135441329D01*
X172713618Y-135248618D01*
X173348618Y-134613618D01*
X173541330Y-134325205D01*
X173609000Y-133985000D01*
X173609000Y-132242609D01*
X173690729Y-132653489D01*
X174015585Y-133139670D01*
X174501766Y-133464526D01*
X175075255Y-133578600D01*
X175444745Y-133578600D01*
X176018234Y-133464526D01*
X176504415Y-133139670D01*
X176618453Y-132969000D01*
X178981547Y-132969000D01*
X179095585Y-133139670D01*
X179581766Y-133464526D01*
X180155255Y-133578600D01*
X180524745Y-133578600D01*
X181098234Y-133464526D01*
X181584415Y-133139670D01*
X181909271Y-132653489D01*
X182023345Y-132080000D01*
X181909271Y-131506511D01*
X181584415Y-131020330D01*
X181269634Y-130810000D01*
X181584415Y-130599670D01*
X181909271Y-130113489D01*
X182023345Y-129540000D01*
X181909271Y-128966511D01*
X181584415Y-128480330D01*
X181269634Y-128270000D01*
X181584415Y-128059670D01*
X181909271Y-127573489D01*
X182023345Y-127000000D01*
X181909271Y-126426511D01*
X181584415Y-125940330D01*
X181269634Y-125730000D01*
X181584415Y-125519670D01*
X181909271Y-125033489D01*
X182023345Y-124460000D01*
X181909271Y-123886511D01*
X181584415Y-123400330D01*
X181269634Y-123190000D01*
X181584415Y-122979670D01*
X181909271Y-122493489D01*
X182023345Y-121920000D01*
X181909271Y-121346511D01*
X181584415Y-120860330D01*
X181269634Y-120650000D01*
X181584415Y-120439670D01*
X181909271Y-119953489D01*
X182023345Y-119380000D01*
X181909271Y-118806511D01*
X181584415Y-118320330D01*
X181269634Y-118110000D01*
X181584415Y-117899670D01*
X181909271Y-117413489D01*
X182023345Y-116840000D01*
X181909271Y-116266511D01*
X181584415Y-115780330D01*
X181570087Y-115770757D01*
X181591317Y-115766762D01*
X181807441Y-115627690D01*
X181952431Y-115415490D01*
X182003440Y-115163600D01*
X182003440Y-114300000D01*
X183736655Y-114300000D01*
X183850729Y-114873489D01*
X184175585Y-115359670D01*
X184490366Y-115570000D01*
X184175585Y-115780330D01*
X183850729Y-116266511D01*
X183736655Y-116840000D01*
X183850729Y-117413489D01*
X184175585Y-117899670D01*
X184490366Y-118110000D01*
X184175585Y-118320330D01*
X183850729Y-118806511D01*
X183736655Y-119380000D01*
X183850729Y-119953489D01*
X184175585Y-120439670D01*
X184490366Y-120650000D01*
X184175585Y-120860330D01*
X183850729Y-121346511D01*
X183736655Y-121920000D01*
X183850729Y-122493489D01*
X184175585Y-122979670D01*
X184490366Y-123190000D01*
X184175585Y-123400330D01*
X183850729Y-123886511D01*
X183736655Y-124460000D01*
X183850729Y-125033489D01*
X184175585Y-125519670D01*
X184490366Y-125730000D01*
X184175585Y-125940330D01*
X183850729Y-126426511D01*
X183736655Y-127000000D01*
X183850729Y-127573489D01*
X184175585Y-128059670D01*
X184490366Y-128270000D01*
X184175585Y-128480330D01*
X183850729Y-128966511D01*
X183736655Y-129540000D01*
X183850729Y-130113489D01*
X184175585Y-130599670D01*
X184490366Y-130810000D01*
X184175585Y-131020330D01*
X183850729Y-131506511D01*
X183736655Y-132080000D01*
X183850729Y-132653489D01*
X184175585Y-133139670D01*
X184490366Y-133350000D01*
X184175585Y-133560330D01*
X183850729Y-134046511D01*
X183736655Y-134620000D01*
X183850729Y-135193489D01*
X184175585Y-135679670D01*
X184661766Y-136004526D01*
X185235255Y-136118600D01*
X185604745Y-136118600D01*
X186178234Y-136004526D01*
X186664415Y-135679670D01*
X186989271Y-135193489D01*
X187031930Y-134979026D01*
X188892642Y-134979026D01*
X188895291Y-134994791D01*
X189149268Y-135522036D01*
X189585680Y-135911954D01*
X190138087Y-136105184D01*
X190373000Y-135960924D01*
X190373000Y-134747000D01*
X190627000Y-134747000D01*
X190627000Y-135960924D01*
X190861913Y-136105184D01*
X191414320Y-135911954D01*
X191850732Y-135522036D01*
X192104709Y-134994791D01*
X192107358Y-134979026D01*
X191986217Y-134747000D01*
X190627000Y-134747000D01*
X190373000Y-134747000D01*
X189013783Y-134747000D01*
X188892642Y-134979026D01*
X187031930Y-134979026D01*
X187103345Y-134620000D01*
X186989271Y-134046511D01*
X186664415Y-133560330D01*
X186349634Y-133350000D01*
X186664415Y-133139670D01*
X186989271Y-132653489D01*
X187031930Y-132439026D01*
X188892642Y-132439026D01*
X188895291Y-132454791D01*
X189149268Y-132982036D01*
X189561108Y-133350000D01*
X189149268Y-133717964D01*
X188895291Y-134245209D01*
X188892642Y-134260974D01*
X189013783Y-134493000D01*
X190373000Y-134493000D01*
X190373000Y-132207000D01*
X190627000Y-132207000D01*
X190627000Y-134493000D01*
X191986217Y-134493000D01*
X192107358Y-134260974D01*
X192104709Y-134245209D01*
X191850732Y-133717964D01*
X191438892Y-133350000D01*
X191850732Y-132982036D01*
X192104709Y-132454791D01*
X192107358Y-132439026D01*
X191986217Y-132207000D01*
X190627000Y-132207000D01*
X190373000Y-132207000D01*
X189013783Y-132207000D01*
X188892642Y-132439026D01*
X187031930Y-132439026D01*
X187103345Y-132080000D01*
X186989271Y-131506511D01*
X186664415Y-131020330D01*
X186349634Y-130810000D01*
X186664415Y-130599670D01*
X186989271Y-130113489D01*
X187031930Y-129899026D01*
X188892642Y-129899026D01*
X188895291Y-129914791D01*
X189149268Y-130442036D01*
X189561108Y-130810000D01*
X189149268Y-131177964D01*
X188895291Y-131705209D01*
X188892642Y-131720974D01*
X189013783Y-131953000D01*
X190373000Y-131953000D01*
X190373000Y-129667000D01*
X190627000Y-129667000D01*
X190627000Y-131953000D01*
X191986217Y-131953000D01*
X192107358Y-131720974D01*
X192104709Y-131705209D01*
X191850732Y-131177964D01*
X191438892Y-130810000D01*
X191850732Y-130442036D01*
X192104709Y-129914791D01*
X192107358Y-129899026D01*
X191986217Y-129667000D01*
X190627000Y-129667000D01*
X190373000Y-129667000D01*
X189013783Y-129667000D01*
X188892642Y-129899026D01*
X187031930Y-129899026D01*
X187103345Y-129540000D01*
X186989271Y-128966511D01*
X186664415Y-128480330D01*
X186349634Y-128270000D01*
X186664415Y-128059670D01*
X186989271Y-127573489D01*
X187031930Y-127359026D01*
X188892642Y-127359026D01*
X188895291Y-127374791D01*
X189149268Y-127902036D01*
X189561108Y-128270000D01*
X189149268Y-128637964D01*
X188895291Y-129165209D01*
X188892642Y-129180974D01*
X189013783Y-129413000D01*
X190373000Y-129413000D01*
X190373000Y-127127000D01*
X190627000Y-127127000D01*
X190627000Y-129413000D01*
X191986217Y-129413000D01*
X192107358Y-129180974D01*
X192104709Y-129165209D01*
X191850732Y-128637964D01*
X191438892Y-128270000D01*
X191850732Y-127902036D01*
X192104709Y-127374791D01*
X192107358Y-127359026D01*
X191986217Y-127127000D01*
X190627000Y-127127000D01*
X190373000Y-127127000D01*
X189013783Y-127127000D01*
X188892642Y-127359026D01*
X187031930Y-127359026D01*
X187103345Y-127000000D01*
X186989271Y-126426511D01*
X186664415Y-125940330D01*
X186349634Y-125730000D01*
X186664415Y-125519670D01*
X186989271Y-125033489D01*
X187031930Y-124819026D01*
X188892642Y-124819026D01*
X188895291Y-124834791D01*
X189149268Y-125362036D01*
X189561108Y-125730000D01*
X189149268Y-126097964D01*
X188895291Y-126625209D01*
X188892642Y-126640974D01*
X189013783Y-126873000D01*
X190373000Y-126873000D01*
X190373000Y-124587000D01*
X190627000Y-124587000D01*
X190627000Y-126873000D01*
X191986217Y-126873000D01*
X192107358Y-126640974D01*
X192104709Y-126625209D01*
X191850732Y-126097964D01*
X191438892Y-125730000D01*
X191850732Y-125362036D01*
X192104709Y-124834791D01*
X192107358Y-124819026D01*
X191986217Y-124587000D01*
X190627000Y-124587000D01*
X190373000Y-124587000D01*
X189013783Y-124587000D01*
X188892642Y-124819026D01*
X187031930Y-124819026D01*
X187103345Y-124460000D01*
X186989271Y-123886511D01*
X186664415Y-123400330D01*
X186349634Y-123190000D01*
X186664415Y-122979670D01*
X186989271Y-122493489D01*
X187031930Y-122279026D01*
X188892642Y-122279026D01*
X188895291Y-122294791D01*
X189149268Y-122822036D01*
X189561108Y-123190000D01*
X189149268Y-123557964D01*
X188895291Y-124085209D01*
X188892642Y-124100974D01*
X189013783Y-124333000D01*
X190373000Y-124333000D01*
X190373000Y-122047000D01*
X190627000Y-122047000D01*
X190627000Y-124333000D01*
X191986217Y-124333000D01*
X192107358Y-124100974D01*
X192104709Y-124085209D01*
X191850732Y-123557964D01*
X191438892Y-123190000D01*
X191850732Y-122822036D01*
X192104709Y-122294791D01*
X192107358Y-122279026D01*
X191986217Y-122047000D01*
X190627000Y-122047000D01*
X190373000Y-122047000D01*
X189013783Y-122047000D01*
X188892642Y-122279026D01*
X187031930Y-122279026D01*
X187103345Y-121920000D01*
X186989271Y-121346511D01*
X186664415Y-120860330D01*
X186349634Y-120650000D01*
X186664415Y-120439670D01*
X186989271Y-119953489D01*
X187031930Y-119739026D01*
X188892642Y-119739026D01*
X188895291Y-119754791D01*
X189149268Y-120282036D01*
X189561108Y-120650000D01*
X189149268Y-121017964D01*
X188895291Y-121545209D01*
X188892642Y-121560974D01*
X189013783Y-121793000D01*
X190373000Y-121793000D01*
X190373000Y-119507000D01*
X190627000Y-119507000D01*
X190627000Y-121793000D01*
X191986217Y-121793000D01*
X192107358Y-121560974D01*
X192104709Y-121545209D01*
X191850732Y-121017964D01*
X191438892Y-120650000D01*
X191850732Y-120282036D01*
X192104709Y-119754791D01*
X192107358Y-119739026D01*
X191986217Y-119507000D01*
X190627000Y-119507000D01*
X190373000Y-119507000D01*
X189013783Y-119507000D01*
X188892642Y-119739026D01*
X187031930Y-119739026D01*
X187103345Y-119380000D01*
X186989271Y-118806511D01*
X186664415Y-118320330D01*
X186349634Y-118110000D01*
X186664415Y-117899670D01*
X186989271Y-117413489D01*
X187031930Y-117199026D01*
X188892642Y-117199026D01*
X188895291Y-117214791D01*
X189149268Y-117742036D01*
X189561108Y-118110000D01*
X189149268Y-118477964D01*
X188895291Y-119005209D01*
X188892642Y-119020974D01*
X189013783Y-119253000D01*
X190373000Y-119253000D01*
X190373000Y-116967000D01*
X190627000Y-116967000D01*
X190627000Y-119253000D01*
X191986217Y-119253000D01*
X192107358Y-119020974D01*
X192104709Y-119005209D01*
X191850732Y-118477964D01*
X191438892Y-118110000D01*
X191850732Y-117742036D01*
X192104709Y-117214791D01*
X192107358Y-117199026D01*
X191986217Y-116967000D01*
X190627000Y-116967000D01*
X190373000Y-116967000D01*
X189013783Y-116967000D01*
X188892642Y-117199026D01*
X187031930Y-117199026D01*
X187103345Y-116840000D01*
X186989271Y-116266511D01*
X186664415Y-115780330D01*
X186349634Y-115570000D01*
X186664415Y-115359670D01*
X186989271Y-114873489D01*
X187031930Y-114659026D01*
X188892642Y-114659026D01*
X188895291Y-114674791D01*
X189149268Y-115202036D01*
X189561108Y-115570000D01*
X189149268Y-115937964D01*
X188895291Y-116465209D01*
X188892642Y-116480974D01*
X189013783Y-116713000D01*
X190373000Y-116713000D01*
X190373000Y-114427000D01*
X190627000Y-114427000D01*
X190627000Y-116713000D01*
X191986217Y-116713000D01*
X192107358Y-116480974D01*
X192104709Y-116465209D01*
X191850732Y-115937964D01*
X191438892Y-115570000D01*
X191850732Y-115202036D01*
X192104709Y-114674791D01*
X192107358Y-114659026D01*
X191986217Y-114427000D01*
X190627000Y-114427000D01*
X190373000Y-114427000D01*
X189013783Y-114427000D01*
X188892642Y-114659026D01*
X187031930Y-114659026D01*
X187103345Y-114300000D01*
X186989271Y-113726511D01*
X186664415Y-113240330D01*
X186650087Y-113230757D01*
X186671317Y-113226762D01*
X186887441Y-113087690D01*
X187032431Y-112875490D01*
X187083440Y-112623600D01*
X187083440Y-112045750D01*
X188849000Y-112045750D01*
X188849000Y-112749910D01*
X188945673Y-112983299D01*
X189124302Y-113161927D01*
X189321861Y-113243759D01*
X189149268Y-113397964D01*
X188895291Y-113925209D01*
X188892642Y-113940974D01*
X189013783Y-114173000D01*
X190373000Y-114173000D01*
X190373000Y-111887000D01*
X190627000Y-111887000D01*
X190627000Y-114173000D01*
X191986217Y-114173000D01*
X192107358Y-113940974D01*
X192104709Y-113925209D01*
X191850732Y-113397964D01*
X191678139Y-113243759D01*
X191875698Y-113161927D01*
X192054327Y-112983299D01*
X192151000Y-112749910D01*
X192151000Y-112045750D01*
X191992250Y-111887000D01*
X190627000Y-111887000D01*
X190373000Y-111887000D01*
X189007750Y-111887000D01*
X188849000Y-112045750D01*
X187083440Y-112045750D01*
X187083440Y-110896400D01*
X187059674Y-110770090D01*
X188849000Y-110770090D01*
X188849000Y-111474250D01*
X189007750Y-111633000D01*
X190373000Y-111633000D01*
X190373000Y-110420150D01*
X190627000Y-110420150D01*
X190627000Y-111633000D01*
X191992250Y-111633000D01*
X192151000Y-111474250D01*
X192151000Y-110770090D01*
X192054327Y-110536701D01*
X191875698Y-110358073D01*
X191642309Y-110261400D01*
X190785750Y-110261400D01*
X190627000Y-110420150D01*
X190373000Y-110420150D01*
X190214250Y-110261400D01*
X189357691Y-110261400D01*
X189124302Y-110358073D01*
X188945673Y-110536701D01*
X188849000Y-110770090D01*
X187059674Y-110770090D01*
X187039162Y-110661083D01*
X186900090Y-110444959D01*
X186687890Y-110299969D01*
X186436000Y-110248960D01*
X184404000Y-110248960D01*
X184168683Y-110293238D01*
X183952559Y-110432310D01*
X183807569Y-110644510D01*
X183756560Y-110896400D01*
X183756560Y-112623600D01*
X183800838Y-112858917D01*
X183939910Y-113075041D01*
X184152110Y-113220031D01*
X184193439Y-113228400D01*
X184175585Y-113240330D01*
X183850729Y-113726511D01*
X183736655Y-114300000D01*
X182003440Y-114300000D01*
X182003440Y-113436400D01*
X181959162Y-113201083D01*
X181820090Y-112984959D01*
X181607890Y-112839969D01*
X181356000Y-112788960D01*
X179324000Y-112788960D01*
X179088683Y-112833238D01*
X178872559Y-112972310D01*
X178727569Y-113184510D01*
X178681704Y-113411000D01*
X176918661Y-113411000D01*
X176879162Y-113201083D01*
X176740090Y-112984959D01*
X176527890Y-112839969D01*
X176276000Y-112788960D01*
X174244000Y-112788960D01*
X174008683Y-112833238D01*
X173792559Y-112972310D01*
X173647569Y-113184510D01*
X173609000Y-113374969D01*
X173609000Y-107873325D01*
X173809029Y-107739670D01*
X174133885Y-107253489D01*
X174247959Y-106680000D01*
X174133885Y-106106511D01*
X173809029Y-105620330D01*
X173322848Y-105295474D01*
X172749359Y-105181400D01*
X172690641Y-105181400D01*
X172117152Y-105295474D01*
X171651558Y-105606574D01*
X171646762Y-105581083D01*
X171507690Y-105364959D01*
X171295490Y-105219969D01*
X171069000Y-105174104D01*
X171069000Y-104140000D01*
X171001329Y-103799794D01*
X170808618Y-103511382D01*
X169538618Y-102241382D01*
X169250206Y-102048671D01*
X168910000Y-101981000D01*
X163753325Y-101981000D01*
X163619670Y-101780971D01*
X163348839Y-101600008D01*
X163766821Y-101218490D01*
X164014968Y-100689027D01*
X163894469Y-100457000D01*
X162687000Y-100457000D01*
X162687000Y-100477000D01*
X162433000Y-100477000D01*
X162433000Y-100457000D01*
X160147000Y-100457000D01*
X160147000Y-100477000D01*
X159893000Y-100477000D01*
X159893000Y-100457000D01*
X158685531Y-100457000D01*
X158565032Y-100689027D01*
X158813179Y-101218490D01*
X159231161Y-101600008D01*
X158960330Y-101780971D01*
X158826675Y-101981000D01*
X158750000Y-101981000D01*
X158409795Y-102048670D01*
X158121382Y-102241382D01*
X157486382Y-102876382D01*
X157293671Y-103164794D01*
X157226000Y-103505000D01*
X157226000Y-111760000D01*
X157293671Y-112100206D01*
X157486382Y-112388618D01*
X157987047Y-112889283D01*
X157864970Y-112865000D01*
X157095030Y-112865000D01*
X156545879Y-112974233D01*
X156080332Y-113285302D01*
X155996343Y-113411000D01*
X154058661Y-113411000D01*
X154019162Y-113201083D01*
X153880090Y-112984959D01*
X153667890Y-112839969D01*
X153416000Y-112788960D01*
X151384000Y-112788960D01*
X151148683Y-112833238D01*
X150932559Y-112972310D01*
X150787569Y-113184510D01*
X150736560Y-113436400D01*
X150736560Y-115163600D01*
X150780838Y-115398917D01*
X150919910Y-115615041D01*
X151132110Y-115760031D01*
X151173439Y-115768400D01*
X151155585Y-115780330D01*
X150830729Y-116266511D01*
X150716655Y-116840000D01*
X149003345Y-116840000D01*
X148889271Y-116266511D01*
X148564415Y-115780330D01*
X148550087Y-115770757D01*
X148571317Y-115766762D01*
X148787441Y-115627690D01*
X148932431Y-115415490D01*
X148983440Y-115163600D01*
X148983440Y-113436400D01*
X148939162Y-113201083D01*
X148800090Y-112984959D01*
X148587890Y-112839969D01*
X148336000Y-112788960D01*
X146304000Y-112788960D01*
X146068683Y-112833238D01*
X145852559Y-112972310D01*
X145707569Y-113184510D01*
X145661704Y-113411000D01*
X143898661Y-113411000D01*
X143859162Y-113201083D01*
X143720090Y-112984959D01*
X143507890Y-112839969D01*
X143256000Y-112788960D01*
X141224000Y-112788960D01*
X140988683Y-112833238D01*
X140772559Y-112972310D01*
X140627569Y-113184510D01*
X140576560Y-113436400D01*
X140576560Y-115163600D01*
X140620838Y-115398917D01*
X140759910Y-115615041D01*
X140972110Y-115760031D01*
X141013439Y-115768400D01*
X140995585Y-115780330D01*
X140670729Y-116266511D01*
X140556655Y-116840000D01*
X138843345Y-116840000D01*
X138729271Y-116266511D01*
X138404415Y-115780330D01*
X138089634Y-115570000D01*
X138404415Y-115359670D01*
X138729271Y-114873489D01*
X138843345Y-114300000D01*
X138729271Y-113726511D01*
X138404415Y-113240330D01*
X138390087Y-113230757D01*
X138411317Y-113226762D01*
X138627441Y-113087690D01*
X138772431Y-112875490D01*
X138823440Y-112623600D01*
X138823440Y-110896400D01*
X138779162Y-110661083D01*
X138640090Y-110444959D01*
X138427890Y-110299969D01*
X138176000Y-110248960D01*
X136144000Y-110248960D01*
X135908683Y-110293238D01*
X135692559Y-110432310D01*
X135547569Y-110644510D01*
X135496560Y-110896400D01*
X135496560Y-112623600D01*
X135540838Y-112858917D01*
X135679910Y-113075041D01*
X135892110Y-113220031D01*
X135933439Y-113228400D01*
X135915585Y-113240330D01*
X135590729Y-113726511D01*
X135476655Y-114300000D01*
X130302000Y-114300000D01*
X130302000Y-112045750D01*
X130429000Y-112045750D01*
X130429000Y-112749910D01*
X130525673Y-112983299D01*
X130704302Y-113161927D01*
X130901861Y-113243759D01*
X130729268Y-113397964D01*
X130475291Y-113925209D01*
X130472642Y-113940974D01*
X130593783Y-114173000D01*
X131953000Y-114173000D01*
X131953000Y-111887000D01*
X132207000Y-111887000D01*
X132207000Y-114173000D01*
X133566217Y-114173000D01*
X133687358Y-113940974D01*
X133684709Y-113925209D01*
X133430732Y-113397964D01*
X133258139Y-113243759D01*
X133455698Y-113161927D01*
X133634327Y-112983299D01*
X133731000Y-112749910D01*
X133731000Y-112045750D01*
X133572250Y-111887000D01*
X132207000Y-111887000D01*
X131953000Y-111887000D01*
X130587750Y-111887000D01*
X130429000Y-112045750D01*
X130302000Y-112045750D01*
X130302000Y-110770090D01*
X130429000Y-110770090D01*
X130429000Y-111474250D01*
X130587750Y-111633000D01*
X131953000Y-111633000D01*
X131953000Y-110420150D01*
X132207000Y-110420150D01*
X132207000Y-111633000D01*
X133572250Y-111633000D01*
X133731000Y-111474250D01*
X133731000Y-110770090D01*
X133634327Y-110536701D01*
X133455698Y-110358073D01*
X133222309Y-110261400D01*
X132365750Y-110261400D01*
X132207000Y-110420150D01*
X131953000Y-110420150D01*
X131794250Y-110261400D01*
X130937691Y-110261400D01*
X130704302Y-110358073D01*
X130525673Y-110536701D01*
X130429000Y-110770090D01*
X130302000Y-110770090D01*
X130302000Y-102594016D01*
X149140590Y-102594016D01*
X149196271Y-102824611D01*
X149679078Y-102992622D01*
X150189428Y-102963083D01*
X150523729Y-102824611D01*
X150579410Y-102594016D01*
X149860000Y-101874605D01*
X149140590Y-102594016D01*
X130302000Y-102594016D01*
X130302000Y-101514078D01*
X148562378Y-101514078D01*
X148591917Y-102024428D01*
X148730389Y-102358729D01*
X148960984Y-102414410D01*
X149680395Y-101695000D01*
X149666252Y-101680858D01*
X149845858Y-101501252D01*
X149860000Y-101515395D01*
X149874142Y-101501252D01*
X150053748Y-101680858D01*
X150039605Y-101695000D01*
X150759016Y-102414410D01*
X150989611Y-102358729D01*
X151157622Y-101875922D01*
X151128083Y-101365572D01*
X150989611Y-101031271D01*
X150759018Y-100975590D01*
X150860680Y-100873928D01*
X150961441Y-100809090D01*
X151106431Y-100596890D01*
X151157440Y-100345000D01*
X151157440Y-99045000D01*
X151113162Y-98809683D01*
X150974090Y-98593559D01*
X150761890Y-98448569D01*
X150510000Y-98397560D01*
X149210000Y-98397560D01*
X148974683Y-98441838D01*
X148758559Y-98580910D01*
X148613569Y-98793110D01*
X148562560Y-99045000D01*
X148562560Y-100345000D01*
X148606838Y-100580317D01*
X148745910Y-100796441D01*
X148859329Y-100873937D01*
X148960982Y-100975590D01*
X148730389Y-101031271D01*
X148562378Y-101514078D01*
X130302000Y-101514078D01*
X130302000Y-98149027D01*
X158565032Y-98149027D01*
X158813179Y-98678490D01*
X159231152Y-99060000D01*
X158813179Y-99441510D01*
X158565032Y-99970973D01*
X158685531Y-100203000D01*
X159893000Y-100203000D01*
X159893000Y-97917000D01*
X160147000Y-97917000D01*
X160147000Y-100203000D01*
X162433000Y-100203000D01*
X162433000Y-97917000D01*
X162687000Y-97917000D01*
X162687000Y-100203000D01*
X163894469Y-100203000D01*
X164014968Y-99970973D01*
X163766821Y-99441510D01*
X163348848Y-99060000D01*
X163766821Y-98678490D01*
X164014968Y-98149027D01*
X163894469Y-97917000D01*
X162687000Y-97917000D01*
X162433000Y-97917000D01*
X160147000Y-97917000D01*
X159893000Y-97917000D01*
X158685531Y-97917000D01*
X158565032Y-98149027D01*
X130302000Y-98149027D01*
X130302000Y-92834482D01*
X130784336Y-92834482D01*
X131366950Y-94244515D01*
X132444811Y-95324259D01*
X133853825Y-95909333D01*
X135379482Y-95910664D01*
X136789515Y-95328050D01*
X137869259Y-94250189D01*
X138454333Y-92841175D01*
X138455200Y-91846400D01*
X158508960Y-91846400D01*
X158508960Y-93573600D01*
X158553238Y-93808917D01*
X158692310Y-94025041D01*
X158904510Y-94170031D01*
X158948345Y-94178908D01*
X158635474Y-94647152D01*
X158521400Y-95220641D01*
X158521400Y-95279359D01*
X158635474Y-95852848D01*
X158960330Y-96339029D01*
X159231161Y-96519992D01*
X158813179Y-96901510D01*
X158565032Y-97430973D01*
X158685531Y-97663000D01*
X159893000Y-97663000D01*
X159893000Y-97643000D01*
X160147000Y-97643000D01*
X160147000Y-97663000D01*
X162433000Y-97663000D01*
X162433000Y-97643000D01*
X162687000Y-97643000D01*
X162687000Y-97663000D01*
X163894469Y-97663000D01*
X164014968Y-97430973D01*
X163766821Y-96901510D01*
X163348839Y-96519992D01*
X163619670Y-96339029D01*
X163944526Y-95852848D01*
X164058600Y-95279359D01*
X164058600Y-95220641D01*
X163944526Y-94647152D01*
X163619670Y-94160971D01*
X163348828Y-93980000D01*
X163619670Y-93799029D01*
X163944526Y-93312848D01*
X164058600Y-92739359D01*
X164058600Y-92680641D01*
X163944526Y-92107152D01*
X163619670Y-91620971D01*
X163133489Y-91296115D01*
X162560000Y-91182041D01*
X161986511Y-91296115D01*
X161500330Y-91620971D01*
X161491195Y-91634642D01*
X161486762Y-91611083D01*
X161347690Y-91394959D01*
X161135490Y-91249969D01*
X160883600Y-91198960D01*
X159156400Y-91198960D01*
X158921083Y-91243238D01*
X158704959Y-91382310D01*
X158559969Y-91594510D01*
X158508960Y-91846400D01*
X138455200Y-91846400D01*
X138455664Y-91315518D01*
X137982346Y-90170000D01*
X170167560Y-90170000D01*
X170167560Y-92710000D01*
X170211838Y-92945317D01*
X170350910Y-93161441D01*
X170563110Y-93306431D01*
X170815000Y-93357440D01*
X173355000Y-93357440D01*
X173590317Y-93313162D01*
X173806441Y-93174090D01*
X173951431Y-92961890D01*
X173986689Y-92787777D01*
X175996828Y-92787777D01*
X176128520Y-93082657D01*
X176836036Y-93354261D01*
X177593632Y-93334436D01*
X178201480Y-93082657D01*
X178312313Y-92834482D01*
X184124336Y-92834482D01*
X184706950Y-94244515D01*
X185784811Y-95324259D01*
X187193825Y-95909333D01*
X188719482Y-95910664D01*
X190129515Y-95328050D01*
X191209259Y-94250189D01*
X191794333Y-92841175D01*
X191795664Y-91315518D01*
X191213050Y-89905485D01*
X190135189Y-88825741D01*
X188726175Y-88240667D01*
X187200518Y-88239336D01*
X185790485Y-88821950D01*
X184710741Y-89899811D01*
X184125667Y-91308825D01*
X184124336Y-92834482D01*
X178312313Y-92834482D01*
X178333172Y-92787777D01*
X177165000Y-91619605D01*
X175996828Y-92787777D01*
X173986689Y-92787777D01*
X174002440Y-92710000D01*
X174002440Y-91111036D01*
X175250739Y-91111036D01*
X175270564Y-91868632D01*
X175522343Y-92476480D01*
X175817223Y-92608172D01*
X176985395Y-91440000D01*
X177344605Y-91440000D01*
X178512777Y-92608172D01*
X178807657Y-92476480D01*
X179079261Y-91768964D01*
X179059436Y-91011368D01*
X178807657Y-90403520D01*
X178512777Y-90271828D01*
X177344605Y-91440000D01*
X176985395Y-91440000D01*
X175817223Y-90271828D01*
X175522343Y-90403520D01*
X175250739Y-91111036D01*
X174002440Y-91111036D01*
X174002440Y-90170000D01*
X173987806Y-90092223D01*
X175996828Y-90092223D01*
X177165000Y-91260395D01*
X178333172Y-90092223D01*
X178201480Y-89797343D01*
X177493964Y-89525739D01*
X176736368Y-89545564D01*
X176128520Y-89797343D01*
X175996828Y-90092223D01*
X173987806Y-90092223D01*
X173958162Y-89934683D01*
X173819090Y-89718559D01*
X173606890Y-89573569D01*
X173355000Y-89522560D01*
X170815000Y-89522560D01*
X170579683Y-89566838D01*
X170363559Y-89705910D01*
X170218569Y-89918110D01*
X170167560Y-90170000D01*
X137982346Y-90170000D01*
X137873050Y-89905485D01*
X136795189Y-88825741D01*
X135386175Y-88240667D01*
X133860518Y-88239336D01*
X132450485Y-88821950D01*
X131370741Y-89899811D01*
X130785667Y-91308825D01*
X130784336Y-92834482D01*
X130302000Y-92834482D01*
X130302000Y-87122000D01*
X192278000Y-87122000D01*
X192278000Y-150368000D01*
M02*
